<svg xmlns="http://www.w3.org/2000/svg" viewBox="0 0 133.56 205.33"><defs><style>.cls-1{fill:#421e14;}.cls-2{fill:#753524;}.cls-3{opacity:0.19;}.cls-4{fill:#2d290e;}.cls-5{opacity:0.2;}.cls-6{fill:#084e40;}.cls-7{fill:#0b6855;}.cls-8{fill:#3c8677;}.cls-9{fill:none;stroke:#736357;stroke-miterlimit:10;}.cls-10{fill:#fcee21;}.cls-11{fill:#a53e22;}.cls-12{fill:#ccc;}.cls-13{fill:#009245;}.cls-14{fill:#29abe2;}</style></defs><title>Asset 1</title><g id="Layer_2" data-name="Layer 2"><g id="Tree"><ellipse class="cls-1" cx="66.17" cy="192.83" rx="38" ry="12.5"/><ellipse class="cls-2" cx="66.29" cy="191.33" rx="36.48" ry="12"/><path class="cls-3" d="M66.29,179.33c-3.47,0-6.82.16-10,.46,15.28,1.43,25.68,2,22.63,6.54-2,3,1,5-12,10,3.18.3,2.53,7,6,7,17-2,29.85-5.37,29.85-12S86.44,179.33,66.29,179.33Z"/><rect class="cls-4" x="52.67" y="148.33" width="27" height="48" rx="13.5" ry="13.5"/><path class="cls-5" d="M70.52,149a6.58,6.58,0,0,0-3.78,6v39.82a6.58,6.58,0,0,0,.19,1.56,13.49,13.49,0,0,0,13-13.47v-21A13.5,13.5,0,0,0,70.52,149Z"/><path class="cls-6" d="M124.15,161.65l9.41,5.85L128,158h1.75l-9.06-16.64,9.85,7.14-8.68-12.73,2.15.78-6.58-7.29-2-3-2.88-4.22L111,119.27l1.31,1.32-5.53-10,3.81,3.85-1.67-3,1.66,1-2.12-3.64,7.79,1.14-2.84-4.95,3.54.1-4.24-1.32-.55-.95h.13l-.15,0-3-5.22h.21l-.26-.08-1.82-3.17,4.32,3.13-4-5.93,4,2.93-3.44-5,1.62,0L108,89l7,.19-7.54-2.35,2.88.08-4.94-1.54L103,81.89l-.22-.39,1.82.05.8.81-.44-.8,2.41.07-2.87-.89L102,76.27l1.31,1.32-.39-.71,7.3,7.37-1.4-2.52,5.56,5.61L111,81.27l1.31,1.32-3.83-6.9,1.53.2.59.59-.31-.56.57.07-5.34-9.25-.08-.46-.16,0L102,60.78l6.51,4.72-8.29-12.15,4.06,2.31-4.89-4.95,1.61.92-6.33-6.4L93.91,44l3.86,2.2L90.65,39l-.59-1.22-.29.14-2.4-3.52,1.41.8L86,32.4l-1.68-2.46-.41-.72.47.31-.74-.78-.37-.65,4.94,3.27-4.29-4.51,1.32.87L79.79,22l-.57-1L82,22.88l-4.39-4.62L69.53,4V0L67.9,1.63,67.53,0l-.92,2.59-4.36,7.56-.52.76h0L61,12l-8.05,6.15,5-2-9.05,6.91,1.72-.69-5.52,4.22,7.34-2.92-2.29,1.75,1.49-.59-1.72,1.32.49-.2-5.49,4.2,4.54-1.81-3.56,2.72.49-.2-5.49,4.2,1.23-.49,0,0,.49-.2-5.49,4.2,7.34-2.92-2.29,1.75L43,37.1l-.08.06,1.26-.5-2,2.89-3.3,2.52,1.72-.69-5.52,4.22L39.17,44,32,54.5l3.06-2.22L24,68.5l7.84-5.68L29.41,67l-2.23,2.37,1.32-.8-2.28,4L24,74.91l1.31-.79-.19.34L20.83,79l5.45-3.28.65-.09L25.63,77l2.5-1.51L24,79.91l1.59-1L20.83,84l6.77-4.07-2,2.1,2.91-1.75L27,81.91l1.59-1L23.83,86l6.77-4.07-2,2.1,4.57-2.75-.43.63-3.76,4,1.59-1L25.83,90l6.77-4.07-2,2.09-2.94,2.46L31.1,89l-.63,1.12L23.9,95.57l1.69-.76-5.33,4.46,6.73-3-.19.34-1.55,1.29,1.1-.49L19.23,110l.18,0L17,113.5l5.41-3.92,2.84-.37L23,112.5l5-3.66,4.79-.63-.46.68-6.68,5.59,4.14-1.86-.49.72-7.45,6.23,1.69-.76-5.33,4.46,3.67-1.65-2.23,1.87,3.94-1.77-.61.9-7.13,6,1.69-.76-5.33,4.46,6-2.71-.72,1.05-.32.27.2-.09L4,150.5l8.54-6.19L9,149.5l2.52-1.82-1.3,2.24L3,160.5l2.16-1.56L0,166.5l5.21-3.78L4,164.5l8.54-6.19L9,163.5l2.34-1.7-1.4,3.45L11.71,163l-3,7.32L13,164.8l-.7,1.72,4-5.12L16,163.62l.76-1.77-.22,1.64,1.14-2.65-.13,1-.27.66.22-.28-.85,6.43,2.74-6.39-.24,1.84,1.42-3.3-1,7.67,1.14-2.65-1,7.83,2.74-6.39-.24,1.84,2.08-4.85-.58,4.4L26,163.07l-.13,1,.33-.78-.12.87.37-.86.19,3-.16,1.21.21-.48.15,2.43.44-2.06-.7,5.3,1.69-3.93.43,6.76.39-1.82.44,6.94,1.65-7.72.18,2.87,1-4.9.29,4.62.39-1.82.44,6.94,1.65-7.72.18,2.87.92-4.29.06.88.18-.84.19,3,.39-1.82.44,6.94,1.65-7.72.18,2.87.87-4.06.11,1.65.34-1.61.17,2.68.7-3.29.15,2.36.39-1.82.44,6.94,0-.19.13,2.06.39-1.82.44,6.94,1.65-7.72.18,2.87L47.69,169l.6-2,.21,3.35.7-3.29.15,2.36.43-2,.57,9,1.06-5,.14,2.21.77-3.61.14.41.26,4.08.39-1.82.44,6.94,1.65-7.72.18,2.87L56.84,168l0,.48.7-3.29.15,2.36.39-1.82.44,6.94,0-.19.13,2.06.39-1.82.44,6.94,1.65-7.72.18,2.87,1.09-5.13.25,3.85.39-1.82.44,6.94,1.65-7.72.18,2.87.87-4.06.11,1.65.42-2,1.78,5.18-.46-7.88.73,2.13,0,.6.06-.3.1.3,0-.62,1-4.53.39,6.08,0-.15.34,5.28.39-1.82.44,6.94,1.65-7.72.18,2.87.87-4.07.28.82.19,3,.39-1.82.44,6.94,1.65-7.72.18,2.87.92-4.29.06.88.6-2.8.45,1.3L79.29,169l2.26,6.57-.2-3.37,2.2,6.37-.46-7.88.94,2.72-.09-1.62.61,1.78-.46-7.88.94,2.72-.05-.87,1,3-.31-5.36.24.68v0l3.47,10.08L89.29,174l2.26,6.57-.46-7.88.94,2.72-.23-4,.75,2.18-.42-7.3,2.27,6.58L94.29,171l2.26,6.57-.46-7.88.94,2.72-.58-10,.47,1.36v-.16l2.48,7.2L99.29,169l2.26,6.57-.46-7.88.94,2.72-.64-11,0-1.27,2,5.74-.11-1.85,2.26,6.57-.27-4.62.64,1.86-.19-3.26.3.87-.11-1.82,1.47,4.26-.11-1.85,2.26,6.57-.46-7.88.94,2.72-.13-2.19.09.27-.31-5.36.24.68v0l3.47,10.08-.11-1.85,2.26,6.57-.41-7.1,1.41,4.1-.46-7.88.94,2.72-.27-4.65,2.69,1.67.48,1.38-.07-1.13,7.7,4.79ZM101.87,79.93l-1.38-2.49,2.95,3Z"/><path class="cls-7" d="M119.49,156l8.64,5.37L123,152.66h1.61l-8.33-15.28,9.05,6.56-8-11.7,2,.72-6-6.69-1.87-2.75-2.65-3.88-1.42-2.56,1.2,1.21-5.08-9.15,3.5,3.54-1.54-2.77,1.53.95-1.95-3.35,7.15,1L109.6,104l3.25.09L109,102.9l-.5-.87h.12l-.14,0-2.76-4.8h.2l-.24-.07L104,94.21l4,2.87-3.72-5.45,3.72,2.69-3.16-4.63,1.49,0-1.63-.51,6.39.18-6.93-2.15,2.64.07-4.54-1.41L100,82.74l-.2-.36,1.67,0,.73.74-.41-.73,2.21.06-2.63-.82-2.27-4.1,1.2,1.21-.36-.65,6.71,6.77-1.28-2.31,5.11,5.16-3.1-5.59,1.2,1.21L105.07,77l1.4.18.54.55-.28-.51.53.07-4.91-8.5-.08-.42-.15,0-2.94-5.09,6,4.34L97.55,56.52l3.73,2.13L96.8,54.1l1.48.84-5.81-5.88-.76-1.12,3.54,2-6.54-6.62-.54-1.12-.27.13-2.21-3.23,1.29.74-2.55-2.59L82.88,35l-.38-.66.44.29-.68-.71-.34-.6,4.54,3-3.94-4.15,1.21.8-5-5.26-.52-.92,2.59,1.71-4-4.24-7.46-13.1V7.5L67.81,9l-.33-1.5-.84,2.38-4,6.94-.47.7h0l-.69,1L54,24.19l4.62-1.84L50.35,28.7l1.58-.63L46.86,32l6.74-2.68-2.1,1.61,1.37-.54-1.58,1.21.45-.18-5,3.85,4.17-1.66-3.27,2.5.45-.18-5,3.85,1.13-.45,0,0,.45-.18-5,3.85,6.74-2.68-2.1,1.61.78-.31-.07.05L46,41.19l-1.81,2.65-3,2.32,1.58-.63-5.08,3.88,3.75-1.49-6.59,9.66,2.81-2L27.48,70.44l7.2-5.22-2.23,3.87-2,2.18,1.21-.73-2.1,3.63-2,2.15,1.2-.72-.18.31-3.94,4.18,5-3,.6-.08L29,78.28l2.3-1.38-3.78,4L28.95,80l-4.38,4.65,6.22-3.74L29,82.87l2.67-1.61-1.4,1.49,1.46-.88-4.38,4.65,6.22-3.74-1.81,1.93,4.2-2.53-.39.58-3.45,3.67,1.46-.88L29.16,90.2l6.22-3.74-1.8,1.92-2.7,2.26L34,89.23l-.58,1-6,5,1.56-.7L24,98.71l6.19-2.78-.18.31-1.42,1.19,1-.45-6.54,11.59.16,0L21,111.78l5-3.6,2.61-.34-2.06,3,4.64-3.36,4.4-.58-.43.62L29,112.69l3.8-1.71-.45.66-6.84,5.72,1.56-.7-4.9,4.1,3.37-1.52L23.52,121l3.62-1.63-.56.83L20,125.63l1.56-.7-4.9,4.1,5.54-2.49-.66,1-.29.24.18-.08L9.1,145.78l7.84-5.69-3.25,4.77L16,143.18l-1.19,2.06L8.18,155l2-1.44-4.74,7L10.21,157,9.1,158.64,16.94,153l-3.25,4.77,2.15-1.56-1.28,3.17,1.62-2.09L13.47,164l3.9-5.06-.64,1.58,3.63-4.7-.27,2,.7-1.62-.2,1.51,1-2.43-.12.93-.25.61.2-.26-.78,5.91,2.52-5.87L23,158.3l1.3-3-.93,7,1-2.43-1,7.19L26,161.2l-.22,1.69,1.91-4.46-.54,4,2.22-5.16-.12.89.31-.71-.11.8.34-.79.18,2.78-.15,1.11.19-.44.14,2.23.4-1.89-.65,4.87,1.55-3.61.4,6.21.36-1.67.41,6.38,1.51-7.1.17,2.64,1-4.5.27,4.25.36-1.67.41,6.38,1.51-7.1.17,2.64.84-3.94.05.81.16-.77.17,2.73.36-1.67.41,6.38,1.51-7.1.17,2.64.8-3.73.1,1.52.32-1.48.16,2.46.65-3,.14,2.17.36-1.67.41,6.38,0-.17.12,1.9.36-1.67.41,6.38L47,170l.17,2.64,2.12-9.93.55-1.86L50,164l.65-3,.14,2.17.39-1.84.53,8.27,1-4.55.13,2,.71-3.32.13.37.24,3.75.36-1.67.41,6.38,1.51-7.1.17,2.64,1.34-6.27,0,.44.65-3,.14,2.17.36-1.67.41,6.38,0-.17.12,1.9.36-1.67.41,6.38,1.51-7.1.17,2.64,1-4.71.23,3.54.36-1.67.41,6.38,1.51-7.1.17,2.64.8-3.73.1,1.52.38-1.8,1.64,4.76L68,160.68l.67,2,0,.55.06-.28.09.28,0-.57.89-4.16.36,5.59,0-.14.31,4.85.36-1.67.41,6.38,1.51-7.1.17,2.64.8-3.74.26.75.17,2.73.36-1.67.41,6.38,1.51-7.1.17,2.64.84-3.94.05.81.55-2.57.41,1.19-.1-1.7,2.08,6-.18-3.1,2,5.86-.42-7.24.86,2.5-.09-1.49.56,1.64-.42-7.24.86,2.5,0-.8.93,2.71-.29-4.93.22.63v0l3.19,9.27-.1-1.7,2.08,6-.42-7.24.86,2.5-.21-3.7.69,2-.39-6.71,2.08,6-.1-1.7,2.08,6-.42-7.24.86,2.5L94,156.78l.43,1.25v-.15l2.28,6.62-.1-1.7,2.08,6-.42-7.24.86,2.5L98.58,154l0-1.17,1.82,5.27-.1-1.7,2.08,6-.25-4.24.59,1.71-.17-3,.27.8-.1-1.67,1.35,3.92-.1-1.7,2.08,6-.42-7.24.86,2.5-.12-2,.09.25-.29-4.93.22.63v0l3.19,9.27-.1-1.7,2.08,6-.38-6.52,1.3,3.77-.42-7.24.86,2.5-.25-4.27,2.47,1.53.44,1.27-.06-1,7.08,4.4ZM99,80.94l-1.27-2.29,2.71,2.74Z"/><polygon class="cls-8" points="117.46 144.94 118.87 144.94 113.46 134.09 23.78 134.09 21.67 137.47 23.7 135.87 22.65 137.84 16.84 147.15 18.58 145.77 14.43 152.43 18.62 149.1 17.64 150.67 24.52 145.22 21.67 149.79 23.55 148.29 22.43 151.33 23.85 149.33 21.47 155.77 24.89 150.93 24.33 152.44 27.51 147.94 27.27 149.89 27.89 148.34 27.71 149.78 28.63 147.45 28.52 148.34 28.3 148.93 28.48 148.68 27.79 154.34 30 148.72 29.8 150.34 30.94 147.43 30.13 154.18 31.04 151.85 30.2 158.74 32.41 153.12 32.22 154.74 33.89 150.47 33.42 154.34 35.36 149.4 35.26 150.25 35.53 149.57 35.44 150.34 35.73 149.58 35.89 152.24 35.76 153.3 35.92 152.88 36.05 155.01 36.4 153.2 35.84 157.86 37.2 154.4 37.54 160.35 37.85 158.75 38.21 164.86 39.53 158.06 39.68 160.59 40.52 156.28 40.76 160.35 41.07 158.75 41.43 164.86 42.75 158.06 42.9 160.59 43.64 156.82 43.68 157.6 43.83 156.86 43.98 159.47 44.29 157.88 44.65 163.98 45.97 157.19 46.12 159.71 46.82 156.14 46.9 157.6 47.18 156.18 47.32 158.53 47.88 155.63 48 157.71 48.31 156.12 48.67 162.22 48.7 162.06 48.81 163.87 49.12 162.27 49.48 168.38 50.8 161.58 50.95 164.11 52.81 154.61 53.29 152.83 53.46 155.78 54.02 152.88 54.15 154.96 54.49 153.2 54.95 161.12 55.8 156.76 55.91 158.7 56.53 155.52 56.65 155.88 56.86 159.47 57.17 157.88 57.52 163.98 58.85 157.19 59 159.71 60.17 153.71 60.19 154.13 60.76 151.23 60.88 153.31 61.19 151.72 61.55 157.82 61.58 157.66 61.69 159.47 62 157.88 62.35 163.98 63.68 157.19 63.83 159.71 64.71 155.2 64.91 158.59 65.22 157 65.57 163.1 66.9 156.31 67.05 158.83 67.74 155.26 67.83 156.72 68.16 155 69.6 159.55 69.23 152.62 69.82 154.49 69.85 155.01 69.9 154.75 69.99 155.01 69.96 154.47 70.74 150.49 71.05 155.84 71.07 155.7 71.34 160.35 71.66 158.75 72.01 164.86 73.34 158.06 73.48 160.59 74.18 157.01 74.41 157.74 74.56 160.35 74.88 158.75 75.23 164.86 76.56 158.06 76.7 160.59 77.44 156.82 77.49 157.6 77.97 155.13 78.33 156.28 78.24 154.65 80.06 160.43 79.91 157.46 81.67 163.07 81.3 156.13 82.06 158.53 81.98 157.11 82.48 158.67 82.11 151.74 82.86 154.13 82.82 153.36 83.64 155.96 83.39 151.24 83.58 151.84 83.58 151.8 86.38 160.68 86.29 159.05 88.11 164.83 87.74 157.89 88.5 160.29 88.31 156.75 88.92 158.67 88.58 152.25 90.4 158.04 90.31 156.41 92.14 162.19 91.77 155.25 92.52 157.65 92.06 148.89 92.43 150.08 92.43 149.94 94.42 156.28 94.34 154.65 96.16 160.43 95.79 153.5 96.55 155.89 96.03 146.19 96.05 145.07 97.64 150.12 97.56 148.49 99.38 154.27 99.16 150.21 99.68 151.84 99.53 148.97 99.77 149.73 99.68 148.13 100.86 151.88 100.78 150.25 102.6 156.03 102.23 149.1 102.98 151.49 102.88 149.56 102.96 149.8 102.71 145.08 102.9 145.68 102.89 145.65 105.69 154.52 105.61 152.89 107.43 158.67 107.1 152.43 108.23 156.03 107.86 149.1 108.62 151.49 108.4 147.4 110.56 148.87 110.95 150.08 110.89 149.09 117.09 153.31 114.35 148.16 121.92 153.31 117.46 144.94"/><polygon class="cls-6" points="117.46 139.94 118.87 139.94 113.46 129.09 23.78 129.09 21.67 132.47 23.7 130.87 22.65 132.84 16.84 142.15 18.58 140.77 14.43 147.43 18.62 144.1 17.64 145.67 24.52 140.22 21.67 144.79 23.55 143.29 22.43 146.33 23.85 144.33 21.47 150.77 24.89 145.93 24.33 147.44 27.51 142.94 27.27 144.89 27.89 143.34 27.71 144.78 28.63 142.45 28.52 143.34 28.3 143.93 28.48 143.68 27.79 149.34 30 143.72 29.8 145.34 30.94 142.43 30.13 149.18 31.04 146.85 30.2 153.74 32.41 148.12 32.22 149.74 33.89 145.47 33.42 149.34 35.36 144.4 35.26 145.25 35.53 144.57 35.44 145.34 35.73 144.58 35.89 147.24 35.76 148.3 35.92 147.88 36.05 150.01 36.4 148.2 35.84 152.86 37.2 149.4 37.54 155.35 37.85 153.75 38.21 159.86 39.53 153.06 39.68 155.59 40.52 151.28 40.76 155.35 41.07 153.75 41.43 159.86 42.75 153.06 42.9 155.59 43.64 151.82 43.68 152.6 43.83 151.86 43.98 154.47 44.29 152.88 44.65 158.98 45.97 152.19 46.12 154.71 46.82 151.14 46.9 152.6 47.18 151.18 47.32 153.53 47.88 150.63 48 152.71 48.31 151.12 48.67 157.22 48.7 157.06 48.81 158.87 49.12 157.27 49.48 163.38 50.8 156.58 50.95 159.11 52.81 149.61 53.29 147.83 53.46 150.78 54.02 147.88 54.15 149.96 54.49 148.2 54.95 156.12 55.8 151.76 55.91 153.7 56.53 150.52 56.65 150.88 56.86 154.47 57.17 152.88 57.52 158.98 58.85 152.19 59 154.71 60.17 148.71 60.19 149.13 60.76 146.23 60.88 148.31 61.19 146.72 61.55 152.82 61.58 152.66 61.69 154.47 62 152.88 62.35 158.98 63.68 152.19 63.83 154.71 64.71 150.2 64.91 153.59 65.22 152 65.57 158.1 66.9 151.31 67.05 153.83 67.74 150.26 67.83 151.72 68.16 150 69.6 154.55 69.23 147.62 69.82 149.49 69.85 150.01 69.9 149.75 69.99 150.01 69.96 149.47 70.74 145.49 71.05 150.84 71.07 150.7 71.34 155.35 71.66 153.75 72.01 159.86 73.34 153.06 73.48 155.59 74.18 152.01 74.41 152.74 74.56 155.35 74.88 153.75 75.23 159.86 76.56 153.06 76.7 155.59 77.44 151.82 77.49 152.6 77.97 150.13 78.33 151.28 78.24 149.65 80.06 155.43 79.91 152.46 81.67 158.07 81.3 151.13 82.06 153.53 81.98 152.11 82.48 153.67 82.11 146.74 82.86 149.13 82.82 148.36 83.64 150.96 83.39 146.24 83.58 146.84 83.58 146.8 86.38 155.68 86.29 154.05 88.11 159.83 87.74 152.89 88.5 155.29 88.31 151.75 88.92 153.67 88.58 147.25 90.4 153.04 90.31 151.41 92.14 157.19 91.77 150.25 92.52 152.65 92.06 143.89 92.43 145.08 92.43 144.94 94.42 151.28 94.34 149.65 96.16 155.43 95.79 148.5 96.55 150.89 96.03 141.19 96.05 140.07 97.64 145.12 97.56 143.49 99.38 149.27 99.16 145.21 99.68 146.84 99.53 143.97 99.77 144.73 99.68 143.13 100.86 146.88 100.78 145.25 102.6 151.03 102.23 144.1 102.98 146.49 102.88 144.56 102.96 144.8 102.71 140.08 102.9 140.68 102.89 140.65 105.69 149.52 105.61 147.89 107.43 153.67 107.1 147.43 108.23 151.03 107.86 144.1 108.62 146.49 108.4 142.4 110.56 143.87 110.95 145.08 110.89 144.09 117.09 148.31 114.35 143.16 121.92 148.31 117.46 139.94"/><polygon class="cls-7" points="112.94 126.94 114.2 126.94 109.37 116.09 29.27 116.09 27.39 119.47 29.2 117.86 28.26 119.84 23.08 129.15 24.63 127.77 20.92 134.43 24.67 131.1 23.8 132.67 29.93 127.22 27.39 131.79 29.07 130.29 28.07 133.33 29.34 131.33 27.21 137.77 30.27 132.93 29.77 134.44 32.61 129.94 32.4 131.89 32.94 130.34 32.78 131.78 33.6 129.45 33.51 130.34 33.31 130.93 33.47 130.68 32.85 136.34 34.83 130.72 34.65 132.34 35.67 129.43 34.94 136.18 35.76 133.85 35.01 140.74 36.98 135.12 36.81 136.74 38.31 132.47 37.89 136.34 39.62 131.4 39.53 132.25 39.77 131.57 39.68 132.34 39.95 131.58 40.09 134.24 39.97 135.3 40.12 134.88 40.23 137.01 40.55 135.2 40.04 139.86 41.26 136.4 41.56 142.35 41.84 140.75 42.16 146.86 43.34 140.06 43.48 142.59 44.23 138.28 44.44 142.35 44.72 140.75 45.03 146.86 46.22 140.06 46.35 142.59 47.01 138.82 47.05 139.6 47.18 138.86 47.31 141.47 47.59 139.88 47.91 145.98 49.09 139.19 49.23 141.71 49.85 138.14 49.92 139.6 50.17 138.18 50.29 140.53 50.8 137.63 50.91 139.71 51.19 138.12 51.5 144.22 51.53 144.06 51.63 145.87 51.91 144.27 52.22 150.38 53.41 143.58 53.54 146.11 55.2 136.61 55.63 134.83 55.78 137.78 56.28 134.88 56.39 136.96 56.7 135.2 57.11 143.12 57.87 138.76 57.97 140.7 58.53 137.52 58.63 137.88 58.81 141.47 59.09 139.88 59.41 145.98 60.59 139.19 60.73 141.71 61.77 135.71 61.8 136.13 62.3 133.23 62.41 135.31 62.69 133.72 63 139.82 63.03 139.66 63.13 141.47 63.41 139.88 63.72 145.98 64.91 139.19 65.04 141.71 65.83 137.2 66 140.59 66.28 139 66.6 145.1 67.78 138.31 67.91 140.83 68.54 137.26 68.61 138.72 68.91 137 70.19 141.55 69.87 134.62 70.39 136.49 70.42 137.01 70.47 136.75 70.54 137.01 70.52 136.47 71.21 132.49 71.49 137.84 71.51 137.7 71.75 142.35 72.03 140.75 72.35 146.86 73.53 140.06 73.66 142.59 74.29 139.01 74.49 139.74 74.63 142.35 74.91 140.75 75.22 146.86 76.41 140.06 76.54 142.59 77.2 138.82 77.24 139.6 77.67 137.13 77.99 138.28 77.91 136.65 79.54 142.43 79.4 139.46 80.98 145.07 80.65 138.13 81.32 140.53 81.25 139.11 81.69 140.67 81.37 133.74 82.04 136.13 82 135.36 82.73 137.96 82.51 133.24 82.68 133.84 82.68 133.8 85.18 142.68 85.1 141.05 86.73 146.83 86.4 139.89 87.07 142.29 86.9 138.75 87.44 140.67 87.14 134.25 88.77 140.04 88.69 138.41 90.32 144.19 89.99 137.25 90.67 139.65 90.25 130.89 90.59 132.08 90.58 131.94 92.36 138.28 92.29 136.65 93.91 142.43 93.59 135.5 94.26 137.89 93.8 128.19 93.82 127.07 95.24 132.12 95.16 130.49 96.79 136.27 96.6 132.21 97.06 133.84 96.92 130.97 97.14 131.73 97.06 130.13 98.11 133.88 98.04 132.25 99.66 138.03 99.34 131.1 100.01 133.49 99.92 131.56 99.99 131.8 99.76 127.08 99.93 127.68 99.93 127.65 102.43 136.52 102.35 134.89 103.98 140.67 103.68 134.43 104.7 138.03 104.37 131.1 105.04 133.49 104.85 129.4 106.78 130.87 107.12 132.08 107.07 131.09 112.61 135.31 110.16 130.16 116.92 135.31 112.94 126.94"/><polygon class="cls-6" points="112.94 121.94 114.2 121.94 109.37 111.09 29.27 111.09 27.39 114.47 29.2 112.86 28.26 114.84 23.08 124.15 24.63 122.77 20.92 129.43 24.67 126.1 23.8 127.67 29.93 122.22 27.39 126.79 29.07 125.29 28.07 128.33 29.34 126.33 27.21 132.77 30.27 127.93 29.77 129.44 32.61 124.94 32.4 126.89 32.94 125.33 32.78 126.78 33.6 124.45 33.51 125.34 33.31 125.93 33.47 125.68 32.85 131.34 34.83 125.72 34.65 127.34 35.67 124.43 34.94 131.18 35.76 128.85 35.01 135.74 36.98 130.12 36.81 131.74 38.31 127.47 37.89 131.34 39.62 126.4 39.53 127.25 39.77 126.57 39.68 127.34 39.95 126.58 40.09 129.24 39.97 130.3 40.12 129.88 40.23 132.01 40.55 130.2 40.04 134.86 41.26 131.4 41.56 137.35 41.84 135.75 42.16 141.86 43.34 135.06 43.48 137.59 44.23 133.28 44.44 137.35 44.72 135.75 45.03 141.86 46.22 135.06 46.35 137.59 47.01 133.82 47.05 134.6 47.18 133.86 47.31 136.47 47.59 134.88 47.91 140.98 49.09 134.19 49.23 136.71 49.85 133.14 49.92 134.6 50.17 133.18 50.29 135.53 50.8 132.63 50.91 134.71 51.19 133.12 51.5 139.22 51.53 139.06 51.63 140.87 51.91 139.27 52.22 145.38 53.41 138.58 53.54 141.11 55.2 131.61 55.63 129.83 55.78 132.78 56.28 129.88 56.39 131.96 56.7 130.2 57.11 138.12 57.87 133.76 57.97 135.7 58.53 132.52 58.63 132.88 58.81 136.47 59.09 134.88 59.41 140.98 60.59 134.19 60.73 136.71 61.77 130.71 61.8 131.13 62.3 128.23 62.41 130.31 62.69 128.72 63 134.82 63.03 134.66 63.13 136.47 63.41 134.88 63.72 140.98 64.91 134.19 65.04 136.71 65.83 132.2 66 135.59 66.28 134 66.6 140.1 67.78 133.31 67.91 135.83 68.54 132.26 68.61 133.72 68.91 132 70.19 136.55 69.87 129.62 70.39 131.49 70.42 132.01 70.47 131.75 70.54 132.01 70.52 131.47 71.21 127.49 71.49 132.84 71.51 132.7 71.75 137.35 72.03 135.75 72.35 141.86 73.53 135.06 73.66 137.59 74.29 134.01 74.49 134.74 74.63 137.35 74.91 135.75 75.22 141.86 76.41 135.06 76.54 137.59 77.2 133.82 77.24 134.6 77.67 132.13 77.99 133.28 77.91 131.65 79.54 137.43 79.4 134.46 80.98 140.07 80.65 133.13 81.32 135.53 81.25 134.11 81.69 135.67 81.37 128.74 82.04 131.13 82 130.36 82.73 132.96 82.51 128.24 82.68 128.84 82.68 128.8 85.18 137.68 85.1 136.05 86.73 141.83 86.4 134.89 87.07 137.29 86.9 133.75 87.44 135.67 87.14 129.25 88.77 135.04 88.69 133.41 90.32 139.19 89.99 132.25 90.67 134.65 90.25 125.89 90.59 127.08 90.58 126.94 92.36 133.28 92.29 131.65 93.91 137.43 93.59 130.5 94.26 132.89 93.8 123.19 93.82 122.07 95.24 127.12 95.16 125.49 96.79 131.27 96.6 127.21 97.06 128.84 96.92 125.97 97.14 126.73 97.06 125.13 98.11 128.88 98.04 127.25 99.66 133.03 99.34 126.1 100.01 128.49 99.92 126.56 99.99 126.8 99.76 122.08 99.93 122.68 99.93 122.65 102.43 131.52 102.35 129.89 103.98 135.67 103.68 129.43 104.7 133.03 104.37 126.1 105.04 128.49 104.85 124.4 106.78 125.87 107.12 127.08 107.07 126.09 112.61 130.31 110.16 125.16 116.92 130.31 112.94 121.94"/><polygon class="cls-8" points="111.94 111.94 113.2 111.94 108.37 101.09 28.27 101.09 26.39 104.47 28.2 102.86 27.26 104.84 22.08 114.15 23.63 112.77 19.92 119.42 23.67 116.1 22.8 117.67 28.93 112.22 26.39 116.79 28.07 115.29 27.07 118.33 28.34 116.33 26.21 122.77 29.27 117.93 28.77 119.44 31.61 114.94 31.4 116.89 31.94 115.33 31.78 116.78 32.6 114.45 32.51 115.34 32.31 115.93 32.47 115.68 31.86 121.34 33.83 115.72 33.65 117.34 34.67 114.43 33.94 121.18 34.76 118.85 34.01 125.74 35.98 120.12 35.81 121.74 37.31 117.47 36.89 121.34 38.62 116.4 38.53 117.25 38.77 116.57 38.68 117.34 38.95 116.58 39.09 119.24 38.97 120.3 39.12 119.88 39.23 122.01 39.55 120.2 39.04 124.86 40.26 121.4 40.56 127.35 40.84 125.75 41.16 131.86 42.34 125.06 42.48 127.59 43.23 123.28 43.44 127.35 43.72 125.75 44.03 131.86 45.22 125.06 45.35 127.59 46.01 123.82 46.05 124.6 46.18 123.86 46.31 126.47 46.59 124.88 46.91 130.98 48.09 124.19 48.23 126.71 48.85 123.14 48.92 124.6 49.17 123.18 49.29 125.53 49.8 122.63 49.91 124.71 50.19 123.11 50.5 129.22 50.53 129.06 50.63 130.87 50.91 129.27 51.22 135.38 52.41 128.58 52.54 131.11 54.2 121.61 54.63 119.83 54.78 122.78 55.28 119.88 55.39 121.96 55.7 120.2 56.11 128.12 56.87 123.76 56.97 125.7 57.53 122.52 57.63 122.88 57.81 126.47 58.09 124.88 58.41 130.98 59.59 124.19 59.73 126.71 60.77 120.71 60.8 121.13 61.3 118.23 61.41 120.31 61.69 118.72 62 124.82 62.03 124.66 62.13 126.47 62.41 124.88 62.72 130.98 63.91 124.19 64.04 126.71 64.83 122.2 65 125.59 65.28 124 65.6 130.1 66.78 123.31 66.91 125.83 67.54 122.26 67.61 123.72 67.91 122 69.19 126.55 68.87 119.61 69.39 121.48 69.42 122.01 69.47 121.75 69.54 122.01 69.52 121.47 70.21 117.49 70.49 122.84 70.51 122.7 70.75 127.35 71.03 125.75 71.35 131.86 72.53 125.06 72.66 127.59 73.29 124.01 73.49 124.73 73.63 127.35 73.91 125.75 74.22 131.86 75.41 125.06 75.54 127.59 76.2 123.82 76.24 124.6 76.67 122.14 76.99 123.28 76.91 121.65 78.54 127.43 78.4 124.46 79.98 130.07 79.65 123.13 80.32 125.53 80.25 124.11 80.69 125.67 80.37 118.74 81.04 121.13 81 120.36 81.73 122.96 81.51 118.24 81.68 118.84 81.68 118.8 84.18 127.68 84.1 126.05 85.73 131.83 85.4 124.89 86.07 127.29 85.9 123.75 86.44 125.67 86.14 119.25 87.77 125.04 87.69 123.41 89.32 129.19 88.99 122.25 89.67 124.65 89.25 115.89 89.59 117.08 89.58 116.94 91.36 123.28 91.29 121.65 92.91 127.43 92.59 120.5 93.26 122.89 92.8 113.19 92.82 112.07 94.24 117.12 94.16 115.49 95.79 121.27 95.6 117.21 96.06 118.84 95.92 115.97 96.14 116.73 96.06 115.13 97.11 118.88 97.04 117.25 98.66 123.03 98.34 116.1 99.01 118.49 98.92 116.56 98.99 116.8 98.76 112.08 98.93 112.68 98.93 112.65 101.43 121.52 101.35 119.89 102.98 125.67 102.68 119.43 103.7 123.03 103.37 116.1 104.04 118.49 103.85 114.4 105.78 115.87 106.12 117.08 106.07 116.09 111.61 120.31 109.16 115.16 115.92 120.31 111.94 111.94"/><polygon class="cls-6" points="111.94 106.94 113.2 106.94 108.37 96.09 28.27 96.09 26.39 99.47 28.2 97.86 27.26 99.84 22.08 109.15 23.63 107.77 19.92 114.42 23.67 111.1 22.8 112.67 28.93 107.22 26.39 111.79 28.07 110.29 27.07 113.33 28.34 111.33 26.21 117.77 29.27 112.93 28.77 114.44 31.61 109.94 31.4 111.89 31.94 110.33 31.78 111.78 32.6 109.45 32.51 110.34 32.31 110.93 32.47 110.68 31.86 116.34 33.83 110.72 33.65 112.34 34.67 109.43 33.94 116.18 34.76 113.85 34.01 120.74 35.98 115.12 35.81 116.74 37.31 112.47 36.89 116.34 38.62 111.4 38.53 112.25 38.77 111.57 38.68 112.34 38.95 111.58 39.09 114.24 38.97 115.3 39.12 114.88 39.23 117.01 39.55 115.2 39.04 119.86 40.26 116.4 40.56 122.35 40.84 120.75 41.16 126.86 42.34 120.06 42.48 122.59 43.23 118.28 43.44 122.35 43.72 120.75 44.03 126.86 45.22 120.06 45.35 122.59 46.01 118.82 46.05 119.6 46.18 118.86 46.31 121.47 46.59 119.88 46.91 125.98 48.09 119.19 48.23 121.71 48.85 118.14 48.92 119.6 49.17 118.18 49.29 120.53 49.8 117.63 49.91 119.71 50.19 118.11 50.5 124.22 50.53 124.06 50.63 125.87 50.91 124.27 51.22 130.38 52.41 123.58 52.54 126.11 54.2 116.61 54.63 114.83 54.78 117.78 55.28 114.88 55.39 116.96 55.7 115.2 56.11 123.11 56.87 118.76 56.97 120.7 57.53 117.52 57.63 117.88 57.81 121.47 58.09 119.88 58.41 125.98 59.59 119.19 59.73 121.71 60.77 115.71 60.8 116.13 61.3 113.23 61.41 115.31 61.69 113.72 62 119.82 62.03 119.66 62.13 121.47 62.41 119.88 62.72 125.98 63.91 119.19 64.04 121.71 64.83 117.2 65 120.59 65.28 119 65.6 125.1 66.78 118.31 66.91 120.83 67.54 117.26 67.61 118.72 67.91 117 69.19 121.55 68.87 114.61 69.39 116.48 69.42 117.01 69.47 116.75 69.54 117.01 69.52 116.47 70.21 112.49 70.49 117.84 70.51 117.7 70.75 122.35 71.03 120.75 71.35 126.86 72.53 120.06 72.66 122.59 73.29 119.01 73.49 119.73 73.63 122.35 73.91 120.75 74.22 126.86 75.41 120.06 75.54 122.59 76.2 118.82 76.24 119.6 76.67 117.14 76.99 118.28 76.91 116.65 78.54 122.43 78.4 119.46 79.98 125.07 79.65 118.13 80.32 120.53 80.25 119.11 80.69 120.67 80.37 113.74 81.04 116.13 81 115.36 81.73 117.96 81.51 113.24 81.68 113.84 81.68 113.8 84.18 122.68 84.1 121.05 85.73 126.83 85.4 119.89 86.07 122.29 85.9 118.75 86.44 120.67 86.14 114.25 87.77 120.04 87.69 118.41 89.32 124.19 88.99 117.25 89.67 119.65 89.25 110.89 89.59 112.08 89.58 111.94 91.36 118.28 91.29 116.65 92.91 122.43 92.59 115.5 93.26 117.89 92.8 108.19 92.82 107.07 94.24 112.12 94.16 110.49 95.79 116.27 95.6 112.21 96.06 113.84 95.92 110.97 96.14 111.73 96.06 110.13 97.11 113.88 97.04 112.25 98.66 118.03 98.34 111.1 99.01 113.49 98.92 111.56 98.99 111.8 98.76 107.08 98.93 107.68 98.93 107.65 101.43 116.52 101.35 114.89 102.98 120.67 102.68 114.43 103.7 118.03 103.37 111.1 104.04 113.49 103.85 109.4 105.78 110.87 106.12 112.08 106.07 111.09 111.61 115.31 109.16 110.16 115.92 115.31 111.94 106.94"/><polygon class="cls-7" points="106.27 96.47 107.42 96.47 103 86.52 29.57 86.52 27.85 89.62 29.51 88.15 28.65 89.95 23.9 98.49 25.32 97.23 21.92 103.33 25.35 100.28 24.56 101.71 30.18 96.72 27.85 100.91 29.39 99.54 28.48 102.32 29.64 100.48 27.69 106.39 30.49 101.95 30.03 103.34 32.63 99.21 32.44 101 32.94 99.58 32.8 100.9 33.55 98.77 33.46 99.58 33.28 100.12 33.42 99.89 32.86 105.08 34.67 99.93 34.51 101.41 35.44 98.75 34.77 104.93 35.52 102.8 34.84 109.11 36.65 103.96 36.48 105.44 37.86 101.53 37.47 105.08 39.06 100.55 38.98 101.33 39.2 100.71 39.12 101.41 39.36 100.72 39.49 103.15 39.38 104.13 39.52 103.74 39.62 105.7 39.91 104.03 39.45 108.31 40.56 105.14 40.84 110.59 41.1 109.13 41.39 114.72 42.48 108.5 42.6 110.81 43.28 106.86 43.48 110.59 43.73 109.13 44.02 114.72 45.11 108.5 45.23 110.81 45.84 107.36 45.87 108.07 45.99 107.39 46.11 109.78 46.37 108.32 46.66 113.92 47.75 107.69 47.87 110.01 48.44 106.73 48.51 108.07 48.73 106.76 48.85 108.92 49.31 106.27 49.41 108.17 49.66 106.71 49.95 112.3 49.98 112.15 50.07 113.82 50.32 112.35 50.61 117.95 51.7 111.72 51.82 114.04 53.34 105.33 53.73 103.69 53.87 106.4 54.34 103.74 54.44 105.65 54.72 104.03 55.1 111.29 55.79 107.3 55.88 109.08 56.39 106.17 56.48 106.49 56.66 109.78 56.91 108.32 57.2 113.92 58.29 107.69 58.41 110.01 59.37 104.51 59.39 104.89 59.85 102.23 59.95 104.14 60.21 102.68 60.5 108.27 60.52 108.12 60.61 109.78 60.87 108.32 61.16 113.92 62.24 107.69 62.36 110.01 63.08 105.87 63.24 108.98 63.5 107.52 63.79 113.11 64.88 106.88 65 109.2 65.57 105.93 65.64 107.26 65.91 105.68 67.09 109.86 66.79 103.5 67.27 105.22 67.3 105.7 67.34 105.45 67.41 105.7 67.38 105.2 68.02 101.55 68.27 106.45 68.3 106.33 68.52 110.59 68.77 109.13 69.06 114.72 70.15 108.5 70.27 110.81 70.84 107.53 71.03 108.19 71.15 110.59 71.41 109.13 71.7 114.72 72.78 108.5 72.9 110.81 73.51 107.36 73.54 108.07 73.94 105.81 74.23 106.86 74.16 105.36 75.65 110.67 75.53 107.94 76.97 113.08 76.67 106.73 77.29 108.92 77.23 107.62 77.63 109.05 77.33 102.69 77.95 104.89 77.91 104.19 78.58 106.57 78.38 102.24 78.53 102.79 78.53 102.76 80.82 110.89 80.75 109.39 82.24 114.7 81.94 108.34 82.56 110.53 82.41 107.29 82.9 109.05 82.62 103.17 84.12 108.47 84.05 106.98 85.54 112.28 85.24 105.92 85.85 108.11 85.47 100.08 85.78 101.18 85.78 101.05 87.41 106.86 87.34 105.36 88.83 110.67 88.53 104.31 89.15 106.5 88.73 97.61 88.74 96.58 90.05 101.21 89.97 99.72 91.47 105.02 91.29 101.29 91.71 102.79 91.59 100.16 91.78 100.86 91.71 99.39 92.68 102.83 92.61 101.33 94.1 106.63 93.8 100.28 94.42 102.47 94.33 100.7 94.4 100.92 94.19 96.6 94.35 97.15 94.35 97.11 96.63 105.25 96.56 103.75 98.06 109.05 97.78 103.33 98.71 106.63 98.41 100.28 99.03 102.47 98.85 98.72 100.62 100.07 100.94 101.18 100.89 100.27 105.97 104.13 103.72 99.42 109.92 104.13 106.27 96.47"/><polygon class="cls-6" points="103.56 85.93 104.62 85.93 100.55 76.77 32.97 76.77 31.38 79.62 32.91 78.27 32.12 79.93 27.74 87.79 29.05 86.62 25.92 92.24 29.08 89.44 28.35 90.75 33.52 86.16 31.38 90.01 32.8 88.75 31.95 91.32 33.02 89.62 31.23 95.06 33.8 90.97 33.38 92.25 35.78 88.45 35.6 90.1 36.06 88.79 35.93 90.01 36.62 88.04 36.54 88.8 36.38 89.29 36.51 89.08 35.99 93.85 37.65 89.11 37.51 90.48 38.37 88.02 37.75 93.72 38.44 91.75 37.81 97.56 39.47 92.82 39.33 94.19 40.59 90.59 40.23 93.85 41.7 89.69 41.62 90.41 41.82 89.83 41.75 90.48 41.98 89.84 42.09 92.08 41.99 92.98 42.12 92.62 42.21 94.42 42.48 92.89 42.05 96.82 43.08 93.91 43.34 98.93 43.57 97.58 43.84 102.73 44.84 97 44.95 99.13 45.59 95.49 45.76 98.93 46 97.58 46.27 102.73 47.27 97 47.38 99.13 47.93 95.95 47.97 96.6 48.08 95.98 48.19 98.19 48.42 96.84 48.69 101.99 49.69 96.25 49.8 98.39 50.33 95.38 50.39 96.6 50.6 95.4 50.7 97.39 51.13 94.94 51.22 96.7 51.46 95.35 51.73 100.5 51.75 100.36 51.83 101.9 52.06 100.55 52.33 105.7 53.33 99.97 53.44 102.1 54.84 94.08 55.2 92.58 55.33 95.07 55.76 92.62 55.85 94.38 56.11 92.89 56.46 99.57 57.1 95.9 57.18 97.53 57.65 94.85 57.74 95.16 57.89 98.19 58.13 96.84 58.4 101.99 59.4 96.25 59.51 98.39 60.39 93.33 60.41 93.68 60.83 91.23 60.93 92.99 61.16 91.64 61.43 96.79 61.45 96.65 61.53 98.19 61.77 96.84 62.03 101.99 63.03 96.25 63.15 98.39 63.81 94.58 63.96 97.44 64.19 96.09 64.46 101.25 65.46 95.51 65.57 97.65 66.1 94.63 66.16 95.86 66.41 94.41 67.5 98.25 67.22 92.4 67.66 93.98 67.69 94.42 67.72 94.2 67.79 94.42 67.77 93.96 68.35 90.6 68.59 95.12 68.61 95 68.81 98.93 69.05 97.58 69.31 102.73 70.31 97 70.42 99.13 70.95 96.11 71.12 96.72 71.24 98.93 71.47 97.58 71.74 102.73 72.74 97 72.85 99.13 73.4 95.95 73.44 96.6 73.8 94.53 74.07 95.49 74.01 94.11 75.38 98.99 75.26 96.49 76.59 101.22 76.31 95.37 76.88 97.39 76.83 96.19 77.2 97.51 76.92 91.66 77.49 93.68 77.46 93.03 78.08 95.22 77.89 91.24 78.03 91.75 78.03 91.72 80.14 99.2 80.07 97.83 81.44 102.7 81.17 96.85 81.74 98.87 81.59 95.89 82.05 97.51 81.79 92.09 83.17 96.97 83.1 95.6 84.48 100.48 84.2 94.63 84.77 96.65 84.42 89.25 84.7 90.26 84.7 90.14 86.2 95.49 86.14 94.11 87.51 98.99 87.23 93.14 87.8 95.16 87.41 86.98 87.43 86.03 88.63 90.29 88.56 88.92 89.94 93.8 89.77 90.37 90.16 91.75 90.05 89.32 90.23 89.97 90.16 88.62 91.05 91.78 90.99 90.4 92.36 95.28 92.08 89.43 92.65 91.45 92.58 89.82 92.63 90.03 92.44 86.04 92.59 86.55 92.58 86.52 94.69 94 94.63 92.63 96 97.51 95.75 92.24 96.61 95.28 96.33 89.43 96.9 91.45 96.73 88 98.36 89.24 98.65 90.26 98.61 89.43 103.28 92.98 101.21 88.64 106.92 92.98 103.56 85.93"/><polygon class="cls-8" points="104.6 73.99 105.65 73.99 101.63 64.95 34.88 64.95 33.31 67.76 34.82 66.43 34.04 68.07 29.72 75.83 31.01 74.68 27.92 80.23 31.04 77.46 30.32 78.76 35.43 74.22 33.31 78.03 34.72 76.78 33.88 79.31 34.93 77.64 33.16 83.01 35.71 78.98 35.29 80.24 37.66 76.49 37.48 78.11 37.94 76.82 37.81 78.02 38.49 76.08 38.41 76.83 38.25 77.31 38.38 77.11 37.87 81.82 39.51 77.14 39.36 78.49 40.21 76.06 39.6 81.69 40.28 79.75 39.66 85.49 41.31 80.8 41.16 82.15 42.41 78.6 42.06 81.82 43.5 77.71 43.43 78.42 43.63 77.85 43.56 78.49 43.78 77.86 43.89 80.07 43.8 80.95 43.92 80.6 44.01 82.38 44.28 80.87 43.86 84.75 44.87 81.88 45.12 86.83 45.35 85.5 45.62 90.59 46.61 84.93 46.72 87.03 47.34 83.44 47.52 86.83 47.75 85.5 48.02 90.59 49 84.93 49.11 87.03 49.66 83.89 49.69 84.54 49.8 83.92 49.91 86.1 50.15 84.77 50.41 89.86 51.4 84.19 51.51 86.3 52.03 83.33 52.09 84.54 52.3 83.35 52.4 85.31 52.82 82.9 52.91 84.63 53.14 83.3 53.41 88.39 53.43 88.25 53.51 89.76 53.74 88.43 54.01 93.52 54.99 87.86 55.1 89.97 56.48 82.04 56.84 80.56 56.97 83.02 57.39 80.6 57.48 82.34 57.74 80.87 58.08 87.47 58.71 83.84 58.8 85.46 59.26 82.81 59.34 83.11 59.5 86.1 59.73 84.77 59.99 89.86 60.98 84.19 61.09 86.3 61.96 81.3 61.98 81.65 62.4 79.23 62.49 80.97 62.73 79.64 62.99 84.72 63.01 84.59 63.09 86.1 63.32 84.77 63.59 89.86 64.58 84.19 64.69 86.3 65.34 82.54 65.49 85.37 65.72 84.03 65.98 89.12 66.97 83.46 67.08 85.57 67.6 82.59 67.66 83.8 67.91 82.37 68.98 86.17 68.71 80.39 69.15 81.94 69.17 82.38 69.21 82.16 69.27 82.38 69.25 81.93 69.83 78.61 70.06 83.07 70.08 82.96 70.28 86.83 70.51 85.5 70.78 90.59 71.76 84.93 71.87 87.03 72.39 84.05 72.56 84.65 72.68 86.83 72.91 85.5 73.17 90.59 74.16 84.93 74.27 87.03 74.82 83.89 74.85 84.54 75.21 82.48 75.48 83.44 75.41 82.08 76.77 86.9 76.65 84.42 77.97 89.1 77.69 83.32 78.25 85.31 78.2 84.13 78.57 85.43 78.29 79.65 78.85 81.65 78.82 81.01 79.43 83.17 79.25 79.24 79.39 79.74 79.39 79.71 81.47 87.1 81.4 85.74 82.76 90.56 82.48 84.78 83.05 86.78 82.91 83.83 83.36 85.43 83.1 80.08 84.46 84.9 84.4 83.55 85.75 88.36 85.48 82.58 86.04 84.58 85.7 77.28 85.98 78.28 85.97 78.16 87.46 83.44 87.39 82.08 88.75 86.9 88.47 81.12 89.04 83.11 88.65 75.03 88.67 74.1 89.85 78.31 89.79 76.95 91.14 81.77 90.98 78.38 91.37 79.74 91.25 77.35 91.43 77.98 91.37 76.65 92.25 79.77 92.18 78.41 93.54 83.23 93.27 77.45 93.83 79.45 93.75 77.84 93.81 78.04 93.62 74.11 93.76 74.61 93.76 74.58 95.84 81.97 95.78 80.61 97.13 85.43 96.89 80.23 97.73 83.23 97.46 77.45 98.02 79.45 97.86 76.04 99.47 77.26 99.75 78.28 99.71 77.45 104.33 80.96 102.28 76.67 107.92 80.96 104.6 73.99"/><polygon class="cls-6" points="102.36 62.8 103.31 62.67 98.51 54.95 37.79 63.4 36.72 66.16 37.92 64.75 37.42 66.34 34.47 73.95 35.51 72.74 33.4 78.18 35.89 75.26 35.39 76.54 39.47 71.77 38.02 75.49 39.14 74.18 38.7 76.59 39.45 74.94 38.52 80.05 40.32 76.06 40.1 77.26 41.78 73.54 41.83 75.04 42.08 73.81 42.11 74.92 42.48 73.07 42.51 73.76 42.42 74.22 42.51 74.02 42.65 78.37 43.55 73.9 43.59 75.15 44.05 72.83 44.21 78.03 44.58 76.18 44.74 81.47 45.65 77.01 45.68 78.25 46.37 74.86 46.46 77.84 47.25 73.91 47.27 74.57 47.38 74.03 47.4 74.61 47.52 74.01 47.91 76.01 47.93 76.83 48 76.49 48.31 78.1 48.36 76.69 48.46 80.28 49.02 77.53 49.88 82.01 49.92 80.77 50.81 85.36 50.99 80.09 51.35 81.99 51.47 78.64 52.06 81.7 52.1 80.47 52.99 85.06 53.17 79.78 53.53 81.69 53.63 78.76 53.75 79.34 53.77 78.77 54.15 80.73 54.19 79.5 55.07 84.09 55.26 78.81 55.62 80.72 55.72 77.94 55.93 79.04 55.97 77.94 56.31 79.71 56.38 77.46 56.69 79.02 56.73 77.78 57.61 82.38 57.62 82.25 57.88 83.61 57.92 82.37 58.81 86.97 58.99 81.69 59.35 83.59 59.61 76.22 59.75 74.82 60.17 77.04 60.25 74.79 60.55 76.36 60.6 74.99 61.75 80.95 61.86 77.56 62.15 79.03 62.23 76.56 62.34 76.82 62.86 79.52 62.91 78.28 63.79 82.88 63.97 77.6 64.34 79.5 64.5 74.84 64.56 75.16 64.64 72.91 64.94 74.47 64.98 73.23 65.87 77.83 65.87 77.7 66.13 79.07 66.18 77.83 67.06 82.42 67.24 77.14 67.61 79.05 67.73 75.55 68.22 78.1 68.26 76.86 69.15 81.45 69.33 76.17 69.69 78.08 69.79 75.31 70 76.4 70.05 75.06 71.5 78.38 70.52 73.16 71.11 74.52 71.19 74.92 71.2 74.71 71.28 74.9 71.2 74.5 71.31 71.4 72.09 75.43 72.09 75.33 72.76 78.82 72.81 77.58 73.69 82.18 73.87 76.9 74.24 78.81 74.33 76.03 74.56 76.55 74.94 78.52 74.99 77.28 75.87 81.88 76.05 76.6 76.42 78.5 76.52 75.57 76.63 76.16 76.7 74.25 77.06 75.08 76.83 73.85 78.67 78.06 78.25 75.83 80.04 79.91 79.06 74.69 79.83 76.43 79.63 75.36 80.12 76.5 79.14 71.28 79.91 73.02 79.8 72.44 80.63 74.34 79.96 70.78 80.15 71.22 80.15 71.19 82.97 77.66 82.74 76.43 84.59 80.64 83.61 75.42 84.37 77.16 83.87 74.5 84.48 75.9 83.58 71.06 85.42 75.28 85.19 74.05 87.03 78.26 86.05 73.04 86.82 74.78 85.58 68.18 85.96 69.05 85.94 68.95 87.96 73.56 87.73 72.33 89.57 76.55 88.59 71.32 89.36 73.07 87.98 65.76 87.88 64.91 89.49 68.59 89.26 67.36 91.1 71.58 90.53 68.52 91.05 69.7 90.64 67.54 90.89 68.1 90.66 66.89 91.85 69.62 91.62 68.39 93.47 72.61 92.49 67.38 93.25 69.13 92.98 67.68 93.05 67.85 92.39 64.3 92.58 64.73 92.57 64.71 95.4 71.17 95.17 69.94 97.01 74.15 96.13 69.45 97.28 72.08 96.3 66.85 97.06 68.6 96.48 65.52 98.1 66.43 98.49 67.31 98.35 66.56 102.99 69.17 100.59 65.53 106.26 68.72 102.36 62.8"/><polygon class="cls-7" points="87.61 64.13 88.42 64.13 85.29 57.09 33.34 57.09 32.12 59.28 33.29 58.24 32.68 59.52 29.32 65.56 30.32 64.67 27.92 68.98 30.35 66.83 29.79 67.84 33.77 64.31 32.12 67.27 33.21 66.3 32.56 68.27 33.38 66.97 32 71.15 33.98 68.01 33.66 68.99 35.5 66.07 35.36 67.34 35.72 66.33 35.62 67.27 36.15 65.76 36.08 66.34 35.96 66.72 36.06 66.56 35.66 70.23 36.94 66.58 36.83 67.63 37.49 65.74 37.02 70.12 37.55 68.61 37.06 73.08 38.34 69.43 38.23 70.48 39.2 67.71 38.92 70.23 40.05 67.02 39.99 67.58 40.15 67.13 40.09 67.63 40.26 67.14 40.35 68.86 40.28 69.55 40.38 69.28 40.45 70.66 40.65 69.49 40.32 72.51 41.11 70.27 41.31 74.13 41.49 73.09 41.7 77.05 42.47 72.64 42.55 74.28 43.04 71.49 43.18 74.13 43.36 73.09 43.56 77.05 44.33 72.64 44.42 74.28 44.84 71.84 44.87 72.34 44.95 71.86 45.04 73.56 45.22 72.52 45.43 76.48 46.2 72.07 46.28 73.71 46.69 71.4 46.73 72.34 46.89 71.42 46.97 72.94 47.3 71.06 47.37 72.41 47.55 71.38 47.76 75.34 47.78 75.23 47.84 76.41 48.02 75.37 48.22 79.33 48.99 74.92 49.08 76.56 50.15 70.4 50.43 69.25 50.53 71.16 50.86 69.28 50.93 70.63 51.13 69.48 51.4 74.62 51.89 71.8 51.95 73.06 52.31 70.99 52.38 71.23 52.5 73.56 52.68 72.52 52.89 76.48 53.66 72.07 53.74 73.71 54.42 69.82 54.43 70.09 54.76 68.21 54.83 69.56 55.01 68.53 55.22 72.48 55.24 72.38 55.3 73.56 55.48 72.52 55.68 76.48 56.45 72.07 56.54 73.71 57.05 70.78 57.16 72.98 57.34 71.95 57.55 75.91 58.32 71.5 58.4 73.14 58.81 70.83 58.86 71.77 59.05 70.65 59.88 73.61 59.67 69.11 60.01 70.32 60.03 70.66 60.06 70.49 60.11 70.66 60.09 70.31 60.54 67.73 60.72 71.2 60.74 71.11 60.89 74.13 61.07 73.09 61.28 77.05 62.05 72.64 62.13 74.28 62.54 71.96 62.67 72.43 62.76 74.13 62.94 73.09 63.14 77.05 63.91 72.64 64 74.28 64.42 71.84 64.45 72.34 64.73 70.74 64.94 71.48 64.89 70.43 65.94 74.18 65.85 72.25 66.88 75.89 66.66 71.39 67.1 72.94 67.06 72.02 67.34 73.04 67.13 68.54 67.57 70.09 67.54 69.59 68.02 71.28 67.87 68.22 67.98 68.61 67.98 68.58 69.6 74.34 69.55 73.28 70.61 77.03 70.39 72.53 70.83 74.08 70.72 71.79 71.07 73.04 70.88 68.87 71.93 72.62 71.88 71.57 72.94 75.32 72.72 70.82 73.16 72.37 72.89 66.69 73.11 67.47 73.11 67.37 74.26 71.48 74.21 70.43 75.27 74.18 75.06 69.68 75.49 71.23 75.19 64.94 75.21 64.21 76.13 67.49 76.08 66.43 77.13 70.18 77.01 67.55 77.31 68.61 77.22 66.74 77.36 67.24 77.31 66.2 77.99 68.63 77.94 67.57 79 71.32 78.78 66.83 79.22 68.38 79.16 67.13 79.21 67.28 79.06 64.22 79.17 64.61 79.17 64.59 80.79 70.34 80.74 69.28 81.8 73.04 81.6 68.99 82.26 71.32 82.05 66.83 82.49 68.38 82.36 65.72 83.61 66.68 83.83 67.47 83.8 66.82 87.39 69.56 85.81 66.22 90.19 69.56 87.61 64.13"/><polygon class="cls-6" points="94.29 56.45 95.14 56.45 91.87 49.09 37.58 49.09 36.3 51.38 37.53 50.29 36.9 51.63 33.38 57.94 34.43 57.01 31.92 61.52 34.46 59.27 33.87 60.33 38.03 56.64 36.3 59.73 37.45 58.72 36.77 60.78 37.63 59.42 36.18 63.78 38.25 60.5 37.92 61.53 39.84 58.48 39.7 59.8 40.07 58.75 39.96 59.73 40.52 58.15 40.45 58.75 40.32 59.15 40.43 58.98 40.01 62.82 41.35 59.01 41.23 60.1 41.92 58.13 41.42 62.71 41.98 61.13 41.47 65.8 42.81 61.99 42.69 63.09 43.7 60.19 43.42 62.82 44.59 59.47 44.53 60.05 44.7 59.58 44.64 60.1 44.82 59.59 44.91 61.39 44.83 62.11 44.94 61.83 45.01 63.27 45.22 62.04 44.88 65.2 45.7 62.86 45.91 66.89 46.1 65.81 46.32 69.95 47.12 65.34 47.21 67.06 47.72 64.13 47.86 66.89 48.05 65.81 48.27 69.95 49.07 65.34 49.16 67.06 49.6 64.5 49.63 65.02 49.72 64.52 49.81 66.3 50 65.21 50.21 69.35 51.02 64.75 51.11 66.46 51.53 64.04 51.58 65.02 51.75 64.06 51.83 65.66 52.17 63.69 52.25 65.1 52.44 64.02 52.65 68.16 52.67 68.05 52.73 69.28 52.92 68.19 53.14 72.33 53.94 67.73 54.03 69.44 55.15 63 55.45 61.79 55.55 63.79 55.89 61.83 55.97 63.23 56.17 62.04 56.45 67.41 56.97 64.46 57.03 65.77 57.41 63.62 57.48 63.86 57.61 66.3 57.8 65.21 58.01 69.35 58.81 64.75 58.9 66.46 59.61 62.39 59.63 62.68 59.97 60.71 60.04 62.12 60.23 61.04 60.45 65.18 60.47 65.06 60.53 66.3 60.72 65.21 60.93 69.35 61.74 64.75 61.83 66.46 62.36 63.4 62.48 65.7 62.67 64.62 62.88 68.75 63.69 64.15 63.77 65.86 64.2 63.44 64.25 64.43 64.45 63.26 65.32 66.35 65.1 61.65 65.45 62.92 65.47 63.27 65.5 63.09 65.55 63.27 65.54 62.9 66.01 60.2 66.2 63.83 66.21 63.74 66.38 66.89 66.56 65.81 66.78 69.95 67.58 65.34 67.67 67.06 68.09 64.63 68.23 65.12 68.32 66.89 68.51 65.81 68.73 69.95 69.53 65.34 69.62 67.06 70.07 64.5 70.09 65.02 70.38 63.36 70.6 64.13 70.55 63.03 71.65 66.95 71.56 64.93 72.63 68.73 72.41 64.03 72.86 65.66 72.82 64.69 73.11 65.75 72.89 61.05 73.35 62.67 73.32 62.15 73.82 63.91 73.67 60.72 73.78 61.12 73.78 61.1 75.47 67.11 75.42 66.01 76.53 69.93 76.3 65.23 76.76 66.85 76.65 64.45 77.01 65.75 76.81 61.4 77.91 65.32 77.86 64.22 78.96 68.14 78.74 63.44 79.2 65.06 78.91 59.12 79.14 59.93 79.14 59.84 80.35 64.13 80.29 63.03 81.4 66.95 81.17 62.24 81.63 63.87 81.32 57.29 81.33 56.53 82.3 59.96 82.24 58.85 83.35 62.77 83.22 60.02 83.53 61.12 83.44 59.18 83.58 59.69 83.53 58.61 84.24 61.15 84.19 60.04 85.3 63.96 85.07 59.26 85.53 60.89 85.47 59.58 85.51 59.74 85.36 56.54 85.48 56.95 85.47 56.92 87.17 62.94 87.11 61.83 88.22 65.75 88.02 61.52 88.7 63.96 88.48 59.26 88.94 60.89 88.81 58.11 90.12 59.11 90.35 59.93 90.32 59.26 94.07 62.12 92.41 58.63 96.99 62.12 94.29 56.45"/><polygon class="cls-8" points="97.76 54.83 98.44 54.83 95.83 48.95 52.44 48.95 51.42 50.78 52.4 49.91 51.9 50.98 49.09 56.02 49.93 55.27 47.92 58.88 49.95 57.08 49.48 57.93 52.8 54.98 51.42 57.45 52.34 56.64 51.79 58.29 52.48 57.2 51.33 60.69 52.98 58.07 52.71 58.89 54.25 56.45 54.14 57.51 54.43 56.66 54.35 57.45 54.79 56.19 54.74 56.67 54.63 56.99 54.72 56.85 54.38 59.92 55.45 56.87 55.36 57.75 55.91 56.17 55.52 59.83 55.96 58.57 55.55 62.3 56.62 59.26 56.53 60.13 57.34 57.82 57.11 59.92 58.05 57.24 58 57.7 58.13 57.33 58.08 57.75 58.23 57.34 58.3 58.78 58.24 59.35 58.32 59.12 58.38 60.28 58.55 59.3 58.28 61.82 58.94 59.95 59.1 63.17 59.25 62.31 59.42 65.61 60.07 61.93 60.14 63.3 60.55 60.97 60.66 63.17 60.81 62.31 60.98 65.61 61.62 61.93 61.7 63.3 62.05 61.26 62.07 61.68 62.14 61.28 62.22 62.7 62.37 61.83 62.54 65.14 63.18 61.46 63.25 62.83 63.59 60.89 63.63 61.68 63.77 60.91 63.83 62.19 64.11 60.62 64.16 61.74 64.31 60.88 64.49 64.19 64.5 64.1 64.55 65.08 64.7 64.21 64.88 67.52 65.52 63.84 65.59 65.21 66.49 60.06 66.72 59.1 66.8 60.7 67.08 59.13 67.14 60.25 67.3 59.3 67.52 63.59 67.94 61.23 67.99 62.28 68.29 60.56 68.34 60.75 68.45 62.7 68.6 61.83 68.77 65.14 69.41 61.46 69.48 62.83 70.05 59.58 70.06 59.8 70.33 58.23 70.39 59.36 70.54 58.5 70.72 61.8 70.73 61.71 70.78 62.7 70.93 61.83 71.11 65.14 71.75 61.46 71.82 62.83 72.24 60.38 72.34 62.22 72.49 61.35 72.66 64.66 73.3 60.98 73.38 62.35 73.71 60.42 73.75 61.2 73.92 60.27 74.61 62.74 74.43 58.98 74.72 60 74.73 60.28 74.76 60.14 74.8 60.28 74.78 59.99 75.16 57.83 75.31 60.73 75.32 60.66 75.45 63.17 75.61 62.31 75.78 65.61 76.42 61.93 76.49 63.3 76.83 61.37 76.94 61.76 77.01 63.17 77.16 62.31 77.33 65.61 77.98 61.93 78.05 63.3 78.4 61.26 78.42 61.68 78.66 60.35 78.83 60.97 78.79 60.08 79.67 63.22 79.6 61.61 80.45 64.65 80.27 60.89 80.64 62.19 80.6 61.41 80.84 62.26 80.66 58.51 81.03 59.8 81.01 59.39 81.4 60.79 81.28 58.24 81.37 58.56 81.37 58.54 82.72 63.35 82.68 62.47 83.56 65.6 83.39 61.84 83.75 63.14 83.66 61.22 83.95 62.26 83.79 58.78 84.67 61.92 84.63 61.04 85.51 64.17 85.33 60.41 85.7 61.71 85.47 56.96 85.66 57.61 85.65 57.53 86.62 60.97 86.58 60.08 87.46 63.22 87.28 59.46 87.65 60.76 87.4 55.5 87.41 54.9 88.18 57.63 88.13 56.75 89.02 59.88 88.91 57.68 89.16 58.56 89.09 57.01 89.2 57.42 89.16 56.55 89.73 58.58 89.69 57.7 90.57 60.83 90.39 57.08 90.76 58.37 90.71 57.33 90.75 57.46 90.63 54.9 90.72 55.23 90.72 55.21 92.07 60.01 92.03 59.13 92.91 62.26 92.75 58.88 93.3 60.83 93.12 57.08 93.49 58.37 93.38 56.16 94.43 56.95 94.61 57.61 94.59 57.08 97.58 59.36 96.26 56.57 99.92 59.36 97.76 54.83"/><polygon class="cls-6" points="93.56 47.5 94.3 47.5 91.44 41.06 43.88 41.06 42.76 43.06 43.84 42.11 43.28 43.28 40.2 48.81 41.12 47.99 38.92 51.94 41.15 49.97 40.63 50.9 44.27 47.66 42.76 50.38 43.76 49.49 43.17 51.29 43.92 50.1 42.66 53.93 44.47 51.05 44.17 51.95 45.86 49.28 45.73 50.44 46.06 49.51 45.97 50.37 46.45 48.99 46.39 49.52 46.28 49.87 46.37 49.72 46.01 53.08 47.18 49.74 47.07 50.7 47.68 48.98 47.24 52.98 47.73 51.6 47.29 55.69 48.46 52.35 48.35 53.31 49.24 50.78 48.99 53.08 50.02 50.15 49.97 50.65 50.11 50.25 50.06 50.7 50.22 50.25 50.3 51.83 50.23 52.46 50.32 52.21 50.39 53.48 50.57 52.4 50.27 55.17 50.99 53.12 51.18 56.65 51.34 55.7 51.53 59.32 52.23 55.29 52.31 56.79 52.76 54.23 52.88 56.65 53.05 55.7 53.24 59.32 53.94 55.29 54.02 56.79 54.41 54.55 54.43 55.01 54.51 54.57 54.59 56.13 54.76 55.18 54.95 58.8 55.65 54.77 55.73 56.27 56.1 54.15 56.14 55.01 56.29 54.17 56.36 55.57 56.66 53.85 56.73 55.08 56.89 54.13 57.08 57.76 57.1 57.66 57.15 58.74 57.32 57.79 57.51 61.41 58.21 57.38 58.29 58.88 59.27 53.24 59.53 52.18 59.62 53.93 59.92 52.21 59.98 53.45 60.16 52.4 60.41 57.1 60.86 54.52 60.92 55.67 61.25 53.78 61.31 53.99 61.42 56.13 61.59 55.18 61.77 58.8 62.48 54.77 62.55 56.27 63.18 52.71 63.19 52.95 63.49 51.23 63.55 52.47 63.72 51.52 63.91 55.15 63.92 55.05 63.98 56.13 64.15 55.18 64.33 58.8 65.04 54.77 65.12 56.27 65.58 53.59 65.69 55.6 65.85 54.66 66.04 58.28 66.75 54.24 66.82 55.75 67.19 53.63 67.24 54.49 67.42 53.47 68.18 56.17 67.98 52.05 68.29 53.16 68.31 53.48 68.34 53.32 68.38 53.48 68.37 53.16 68.78 50.79 68.94 53.97 68.96 53.89 69.1 56.65 69.27 55.7 69.45 59.32 70.16 55.29 70.24 56.79 70.61 54.67 70.73 55.09 70.81 56.65 70.97 55.7 71.16 59.32 71.87 55.29 71.94 56.79 72.33 54.55 72.36 55.01 72.61 53.55 72.8 54.23 72.76 53.26 73.72 56.7 73.64 54.93 74.58 58.26 74.38 54.14 74.78 55.57 74.74 54.72 75 55.65 74.81 51.53 75.21 52.95 75.19 52.5 75.62 54.04 75.49 51.24 75.59 51.6 75.59 51.57 77.07 56.84 77.03 55.87 77.99 59.31 77.8 55.19 78.2 56.61 78.1 54.51 78.42 55.65 78.24 51.84 79.21 55.27 79.16 54.31 80.13 57.74 79.93 53.62 80.33 55.04 80.08 49.84 80.28 50.55 80.28 50.47 81.34 54.23 81.29 53.26 82.26 56.7 82.06 52.58 82.47 54 82.19 48.24 82.2 47.58 83.05 50.57 83 49.6 83.97 53.04 83.85 50.63 84.13 51.6 84.05 49.89 84.17 50.34 84.13 49.39 84.75 51.62 84.71 50.65 85.67 54.08 85.48 49.97 85.88 51.39 85.83 50.24 85.86 50.38 85.73 47.58 85.83 47.94 85.83 47.92 87.31 53.19 87.27 52.22 88.23 55.65 88.06 51.94 88.66 54.08 88.47 49.97 88.87 51.39 88.75 48.96 89.9 49.83 90.1 50.55 90.07 49.96 93.36 52.46 91.91 49.41 95.92 52.46 93.56 47.5"/><polygon class="cls-7" points="87.76 37.59 88.43 37.47 84.8 32.16 42.12 39.97 41.45 41.95 42.26 40.92 41.95 42.06 40.09 47.53 40.79 46.64 39.46 50.55 41.13 48.41 40.82 49.33 43.56 45.83 42.65 48.51 43.4 47.55 43.16 49.27 43.64 48.08 43.14 51.72 44.29 48.84 44.17 49.69 45.25 47.02 45.33 48.08 45.47 47.2 45.52 47.98 45.73 46.66 45.77 47.15 45.72 47.48 45.78 47.33 46.01 50.41 46.51 47.22 46.57 48.1 46.83 46.45 47.1 50.12 47.31 48.8 47.58 52.54 48.09 49.35 48.15 50.23 48.53 47.81 48.69 49.91 49.13 47.11 49.16 47.58 49.22 47.19 49.26 47.61 49.32 47.18 49.66 48.58 49.7 49.16 49.73 48.92 50 50.04 49.99 49.05 50.18 51.58 50.49 49.62 51.23 52.76 51.23 51.88 51.99 55.1 51.96 51.37 52.27 52.7 52.26 50.33 52.77 52.48 52.76 51.6 53.52 54.82 53.49 51.09 53.81 52.42 53.79 50.35 53.89 50.76 53.88 50.35 54.21 51.73 54.2 50.85 54.97 54.07 54.94 50.34 55.25 51.67 55.24 49.71 55.42 50.48 55.41 49.7 55.71 50.94 55.69 49.34 55.95 50.44 55.95 49.56 56.71 52.79 56.71 52.7 56.94 53.65 56.93 52.77 57.69 56 57.66 52.26 57.98 53.59 57.94 48.37 57.99 47.38 58.36 48.94 58.35 47.34 58.61 48.44 58.6 47.47 59.59 51.65 59.57 49.26 59.81 50.28 59.8 48.53 59.89 48.71 60.34 50.61 60.33 49.73 61.09 52.95 61.06 49.22 61.38 50.55 61.35 47.25 61.41 47.47 61.39 45.88 61.65 46.98 61.65 46.1 62.41 49.32 62.41 49.23 62.64 50.19 62.63 49.31 63.39 52.53 63.36 48.8 63.68 50.13 63.66 47.65 64.08 49.44 64.08 48.56 64.84 51.78 64.81 48.05 65.13 49.38 65.11 47.42 65.29 48.19 65.28 47.24 66.41 49.54 65.56 45.88 66.02 46.82 66.09 47.1 66.09 46.96 66.15 47.09 66.08 46.8 66.07 44.61 66.74 47.44 66.74 47.36 67.32 49.82 67.31 48.94 68.08 52.16 68.04 48.42 68.36 49.76 68.34 47.79 68.52 48.16 68.85 49.54 68.84 48.66 69.61 51.88 69.58 48.14 69.89 49.48 69.88 47.41 69.97 47.81 69.96 46.46 70.24 47.04 70.04 46.18 71.47 49.1 71.11 47.53 72.5 50.37 71.65 46.7 72.24 47.91 72.06 47.16 72.45 47.95 71.6 44.29 72.19 45.5 72.1 45.09 72.74 46.41 72.16 43.91 72.31 44.22 72.31 44.2 74.5 48.68 74.3 47.82 75.73 50.74 74.88 47.08 75.47 48.29 75.04 46.42 75.52 47.39 74.73 44 76.16 46.92 75.96 46.06 77.39 48.99 76.54 45.32 77.13 46.53 76.06 41.9 76.35 42.51 76.33 42.44 77.9 45.64 77.7 44.78 79.13 47.7 78.28 44.03 78.88 45.25 77.69 40.12 77.58 39.52 78.83 42.08 78.64 41.21 80.07 44.14 79.57 41.99 79.97 42.82 79.62 41.3 79.81 41.68 79.61 40.84 80.54 42.73 80.34 41.87 81.77 44.79 80.92 41.13 81.51 42.34 81.27 41.32 81.33 41.44 80.75 38.95 80.9 39.26 80.9 39.23 83.09 43.72 82.89 42.86 84.32 45.78 83.56 42.48 84.45 44.3 83.6 40.64 84.19 41.85 83.69 39.69 84.86 40.28 85.16 40.9 85.04 40.38 88.4 42.08 86.59 39.58 90.7 41.66 87.76 37.59"/><polygon class="cls-6" points="87.93 40.09 88.56 40.09 86.14 34.66 46.09 34.66 45.16 36.35 46.06 35.55 45.59 36.54 43 41.19 43.77 40.5 41.92 43.83 43.79 42.17 43.36 42.95 46.43 40.23 45.16 42.51 46 41.76 45.49 43.28 46.13 42.28 45.06 45.5 46.59 43.08 46.34 43.84 47.76 41.59 47.66 42.56 47.93 41.78 47.85 42.51 48.26 41.34 48.21 41.79 48.12 42.08 48.19 41.96 47.89 44.79 48.87 41.98 48.79 42.79 49.3 41.33 48.93 44.71 49.34 43.54 48.97 46.99 49.95 44.18 49.86 44.99 50.61 42.85 50.4 44.79 51.27 42.32 51.22 42.74 51.34 42.4 51.3 42.79 51.44 42.41 51.5 43.74 51.45 44.27 51.52 44.06 51.58 45.12 51.73 44.22 51.48 46.55 52.09 44.82 52.24 47.79 52.38 46.99 52.54 50.05 53.13 46.65 53.2 47.91 53.57 45.76 53.68 47.79 53.82 46.99 53.98 50.05 54.57 46.65 54.64 47.91 54.96 46.03 54.98 46.42 55.05 46.05 55.12 47.35 55.26 46.55 55.41 49.61 56.01 46.21 56.07 47.47 56.38 45.69 56.42 46.42 56.55 45.71 56.61 46.88 56.86 45.43 56.91 46.47 57.05 45.67 57.21 48.73 57.23 48.65 57.27 49.55 57.41 48.75 57.57 51.81 58.16 48.41 58.23 49.67 59.06 44.92 59.27 44.03 59.35 45.51 59.6 44.06 59.66 45.1 59.81 44.22 60.02 48.17 60.4 46 60.45 46.97 60.72 45.38 60.77 45.56 60.87 47.35 61.01 46.55 61.16 49.61 61.76 46.21 61.82 47.47 62.35 44.47 62.36 44.68 62.61 43.23 62.66 44.27 62.8 43.48 62.96 46.53 62.98 46.45 63.02 47.35 63.16 46.55 63.32 49.61 63.91 46.21 63.98 47.47 64.37 45.22 64.46 46.91 64.6 46.12 64.76 49.17 65.35 45.77 65.42 47.03 65.73 45.25 65.77 45.98 65.92 45.12 66.56 47.39 66.39 43.92 66.66 44.86 66.67 45.12 66.69 44.99 66.73 45.12 66.72 44.85 67.06 42.86 67.2 45.54 67.22 45.47 67.34 47.79 67.47 46.99 67.63 50.05 68.23 46.65 68.29 47.91 68.6 46.13 68.71 46.48 68.77 47.79 68.91 46.99 69.07 50.05 69.66 46.65 69.73 47.91 70.06 46.03 70.08 46.42 70.29 45.19 70.45 45.76 70.42 44.94 71.23 47.83 71.16 46.35 71.95 49.15 71.78 45.69 72.12 46.88 72.09 46.17 72.31 46.95 72.14 43.48 72.48 44.68 72.46 44.3 72.83 45.6 72.72 43.24 72.8 43.54 72.8 43.52 74.05 47.96 74.01 47.14 74.82 50.03 74.66 46.56 75 47.76 74.91 45.99 75.18 46.95 75.03 43.74 75.84 46.64 75.81 45.82 76.62 48.71 76.46 45.24 76.79 46.44 76.58 42.06 76.75 42.66 76.75 42.59 77.64 45.76 77.6 44.94 78.42 47.83 78.25 44.37 78.59 45.56 78.36 40.71 78.37 40.15 79.08 42.68 79.04 41.86 79.86 44.75 79.76 42.72 79.99 43.54 79.92 42.1 80.03 42.48 79.99 41.68 80.52 43.56 80.48 42.74 81.29 45.63 81.13 42.17 81.47 43.36 81.42 42.4 81.45 42.52 81.34 40.16 81.43 40.46 81.42 40.44 82.67 44.88 82.64 44.06 83.45 46.95 83.3 43.83 83.81 45.63 83.64 42.17 83.98 43.36 83.88 41.32 84.85 42.05 85.02 42.66 85 42.16 87.76 44.27 86.54 41.7 89.92 44.27 87.93 40.09"/><polygon class="cls-8" points="84.22 35.12 84.76 35.12 82.69 30.48 48.49 30.48 47.68 31.92 48.46 31.24 48.06 32.08 45.84 36.06 46.5 35.47 44.92 38.31 46.52 36.89 46.15 37.56 48.77 35.23 47.68 37.18 48.4 36.55 47.97 37.84 48.51 36.99 47.61 39.74 48.91 37.67 48.7 38.32 49.91 36.4 49.82 37.23 50.05 36.56 49.99 37.18 50.34 36.19 50.3 36.57 50.21 36.82 50.28 36.71 50.02 39.13 50.86 36.73 50.78 37.42 51.22 36.18 50.91 39.06 51.26 38.07 50.94 41.01 51.78 38.61 51.71 39.3 52.34 37.48 52.17 39.13 52.91 37.02 52.87 37.38 52.97 37.09 52.93 37.42 53.05 37.1 53.11 38.23 53.06 38.68 53.12 38.5 53.17 39.42 53.3 38.64 53.09 40.63 53.6 39.16 53.74 41.7 53.86 41.01 53.99 43.62 54.5 40.72 54.55 41.8 54.87 39.96 54.97 41.7 55.08 41.01 55.22 43.62 55.73 40.72 55.78 41.8 56.06 40.19 56.08 40.52 56.13 40.2 56.19 41.32 56.31 40.64 56.45 43.25 56.95 40.34 57.01 41.42 57.27 39.9 57.31 40.52 57.41 39.91 57.47 40.92 57.68 39.68 57.73 40.57 57.85 39.89 57.98 42.49 57.99 42.42 58.03 43.2 58.15 42.52 58.29 45.12 58.8 42.22 58.85 43.3 59.56 39.24 59.74 38.48 59.81 39.74 60.02 38.5 60.07 39.39 60.2 38.64 60.38 42.02 60.7 40.16 60.74 40.99 60.98 39.63 61.02 39.79 61.1 41.32 61.22 40.64 61.36 43.25 61.87 40.34 61.92 41.42 62.37 38.86 62.38 39.04 62.59 37.8 62.64 38.69 62.76 38.01 62.89 40.62 62.91 40.55 62.95 41.32 63.06 40.64 63.2 43.25 63.71 40.34 63.76 41.42 64.1 39.5 64.17 40.95 64.29 40.26 64.43 42.87 64.93 39.97 64.99 41.05 65.26 39.52 65.29 40.14 65.42 39.41 65.96 41.35 65.82 38.39 66.05 39.19 66.06 39.42 66.08 39.3 66.11 39.41 66.1 39.18 66.4 37.48 66.52 39.77 66.53 39.71 66.63 41.7 66.75 41.01 66.88 43.62 67.39 40.72 67.45 41.8 67.71 40.27 67.8 40.58 67.86 41.7 67.98 41.01 68.11 43.62 68.62 40.72 68.67 41.8 68.95 40.19 68.97 40.52 69.16 39.47 69.29 39.96 69.26 39.26 69.95 41.73 69.89 40.46 70.57 42.86 70.43 39.9 70.72 40.92 70.69 40.31 70.88 40.98 70.74 38.02 71.02 39.04 71.01 38.71 71.32 39.82 71.22 37.8 71.3 38.06 71.3 38.05 72.36 41.84 72.33 41.14 73.03 43.61 72.89 40.65 73.17 41.67 73.1 40.16 73.33 40.98 73.2 38.24 73.9 40.71 73.86 40.01 74.56 42.48 74.42 39.52 74.71 40.54 74.53 36.8 74.67 37.31 74.67 37.25 75.43 39.96 75.4 39.26 76.09 41.73 75.95 38.77 76.24 39.79 76.05 35.65 76.05 35.17 76.66 37.33 76.63 36.63 77.32 39.1 77.24 37.37 77.44 38.06 77.38 36.84 77.47 37.16 77.44 36.48 77.89 38.08 77.86 37.38 78.55 39.85 78.41 36.89 78.7 37.91 78.66 37.09 78.69 37.19 78.59 35.17 78.67 35.43 78.66 35.42 79.73 39.2 79.7 38.51 80.39 40.98 80.27 38.31 80.7 39.85 80.56 36.89 80.85 37.91 80.76 36.16 81.59 36.79 81.73 37.31 81.71 36.89 84.08 38.69 83.03 36.49 85.92 38.69 84.22 35.12"/><polygon class="cls-6" points="84.22 32.98 84.76 32.98 82.69 28.35 48.49 28.35 47.68 29.79 48.46 29.1 48.06 29.95 45.84 33.92 46.5 33.33 44.92 36.18 46.52 34.76 46.15 35.42 48.77 33.1 47.68 35.05 48.4 34.41 47.97 35.71 48.51 34.85 47.61 37.6 48.91 35.54 48.7 36.18 49.91 34.26 49.82 35.09 50.05 34.43 49.99 35.05 50.34 34.05 50.3 34.43 50.21 34.68 50.28 34.58 50.02 36.99 50.86 34.59 50.78 35.28 51.22 34.04 50.91 36.92 51.26 35.93 50.94 38.87 51.78 36.47 51.71 37.16 52.34 35.34 52.17 36.99 52.91 34.88 52.87 35.25 52.97 34.96 52.93 35.28 53.05 34.96 53.11 36.09 53.06 36.55 53.12 36.37 53.17 37.28 53.3 36.51 53.09 38.5 53.6 37.02 53.74 39.56 53.86 38.88 53.99 41.49 54.5 38.58 54.55 39.66 54.87 37.82 54.97 39.56 55.08 38.88 55.22 41.49 55.73 38.58 55.78 39.66 56.06 38.05 56.08 38.38 56.13 38.07 56.19 39.19 56.31 38.5 56.45 41.11 56.95 38.21 57.01 39.29 57.27 37.76 57.31 38.38 57.41 37.78 57.47 38.78 57.68 37.55 57.73 38.43 57.85 37.75 57.98 40.36 57.99 40.29 58.03 41.06 58.15 40.38 58.29 42.99 58.8 40.09 58.85 41.17 59.56 37.11 59.74 36.35 59.81 37.61 60.02 36.37 60.07 37.26 60.2 36.51 60.38 39.89 60.7 38.03 60.74 38.86 60.98 37.5 61.02 37.65 61.1 39.19 61.22 38.5 61.36 41.11 61.87 38.21 61.92 39.29 62.37 36.73 62.38 36.91 62.59 35.67 62.64 36.55 62.76 35.87 62.89 38.48 62.91 38.41 62.95 39.19 63.06 38.5 63.2 41.11 63.71 38.21 63.76 39.29 64.1 37.36 64.17 38.81 64.29 38.13 64.43 40.73 64.93 37.83 64.99 38.91 65.26 37.39 65.29 38.01 65.42 37.27 65.96 39.22 65.82 36.26 66.05 37.06 66.06 37.28 66.08 37.17 66.11 37.28 66.1 37.05 66.4 35.35 66.52 37.63 66.53 37.58 66.63 39.56 66.75 38.88 66.88 41.49 67.39 38.58 67.45 39.66 67.71 38.13 67.8 38.44 67.86 39.56 67.98 38.88 68.11 41.49 68.62 38.58 68.67 39.66 68.95 38.05 68.97 38.38 69.16 37.33 69.29 37.82 69.26 37.13 69.95 39.59 69.89 38.33 70.57 40.72 70.43 37.76 70.72 38.78 70.69 38.17 70.88 38.84 70.74 35.88 71.02 36.9 71.01 36.58 71.32 37.69 71.22 35.67 71.3 35.93 71.3 35.91 72.36 39.7 72.33 39 73.03 41.47 72.89 38.51 73.17 39.53 73.1 38.02 73.33 38.84 73.2 36.1 73.9 38.57 73.86 37.88 74.56 40.35 74.42 37.38 74.71 38.41 74.53 34.66 74.67 35.17 74.67 35.12 75.43 37.82 75.4 37.13 76.09 39.59 75.95 36.63 76.24 37.66 76.05 33.51 76.05 33.03 76.66 35.19 76.63 34.49 77.32 36.97 77.24 35.23 77.44 35.93 77.38 34.7 77.47 35.03 77.44 34.34 77.89 35.94 77.86 35.25 78.55 37.72 78.41 34.75 78.7 35.78 78.66 34.95 78.69 35.05 78.59 33.04 78.67 33.3 78.66 33.28 79.73 37.07 79.7 36.37 80.39 38.84 80.27 36.18 80.7 37.72 80.56 34.75 80.85 35.78 80.76 34.03 81.59 34.66 81.73 35.17 81.71 34.75 84.08 36.55 83.03 34.35 85.92 36.55 84.22 32.98"/><polygon class="cls-7" points="83.43 30.6 83.9 30.6 82.09 27.94 52.05 27.94 51.35 28.77 52.02 28.37 51.67 28.86 49.73 31.14 50.31 30.8 48.92 32.43 50.33 31.61 50 32 52.3 30.66 51.35 31.78 51.98 31.41 51.6 32.16 52.08 31.67 51.28 33.24 52.42 32.06 52.24 32.43 53.3 31.33 53.22 31.81 53.43 31.43 53.37 31.78 53.68 31.21 53.64 31.43 53.57 31.57 53.63 31.51 53.4 32.9 54.13 31.52 54.07 31.92 54.45 31.2 54.18 32.86 54.48 32.29 54.2 33.97 54.94 32.6 54.88 32.99 55.44 31.95 55.28 32.9 55.93 31.69 55.9 31.89 55.99 31.73 55.96 31.92 56.06 31.73 56.11 32.38 56.06 32.64 56.12 32.54 56.16 33.06 56.28 32.62 56.09 33.76 56.55 32.91 56.66 34.37 56.77 33.98 56.88 35.47 57.33 33.81 57.38 34.43 57.66 33.37 57.74 34.37 57.84 33.98 57.96 35.47 58.41 33.81 58.46 34.43 58.7 33.5 58.72 33.69 58.77 33.51 58.82 34.15 58.92 33.76 59.04 35.26 59.49 33.59 59.53 34.21 59.77 33.34 59.8 33.69 59.89 33.34 59.94 33.92 60.13 33.21 60.17 33.72 60.27 33.33 60.39 34.83 60.4 34.78 60.44 35.23 60.54 34.84 60.66 36.33 61.1 34.67 61.15 35.29 61.77 32.96 61.94 32.53 61.99 33.25 62.18 32.54 62.22 33.05 62.34 32.62 62.49 34.55 62.78 33.49 62.81 33.96 63.02 33.19 63.06 33.27 63.13 34.15 63.23 33.76 63.35 35.26 63.8 33.59 63.85 34.21 64.24 32.74 64.25 32.84 64.44 32.13 64.48 32.64 64.58 32.25 64.7 33.75 64.71 33.71 64.75 34.15 64.85 33.76 64.97 35.26 65.42 33.59 65.47 34.21 65.76 33.11 65.83 33.94 65.93 33.55 66.05 35.04 66.49 33.38 66.54 34 66.78 33.12 66.81 33.48 66.92 33.06 67.4 34.17 67.28 32.47 67.47 32.93 67.48 33.06 67.5 32.99 67.53 33.06 67.52 32.93 67.78 31.95 67.88 33.26 67.89 33.23 67.98 34.37 68.09 33.98 68.21 35.47 68.65 33.81 68.7 34.43 68.93 33.55 69.01 33.73 69.06 34.37 69.17 33.98 69.28 35.47 69.73 33.81 69.78 34.43 70.02 33.5 70.04 33.69 70.2 33.09 70.32 33.37 70.29 32.97 70.9 34.39 70.85 33.66 71.44 35.03 71.32 33.34 71.57 33.92 71.55 33.57 71.71 33.96 71.59 32.26 71.84 32.84 71.83 32.66 72.1 33.29 72.02 32.14 72.08 32.28 72.08 32.27 73.02 34.45 72.99 34.05 73.6 35.46 73.47 33.77 73.73 34.35 73.66 33.49 73.87 33.96 73.75 32.38 74.36 33.8 74.33 33.4 74.94 34.82 74.82 33.12 75.08 33.71 74.92 31.56 75.05 31.85 75.04 31.82 75.71 33.37 75.68 32.97 76.29 34.39 76.17 32.69 76.42 33.27 76.25 30.9 76.26 30.63 76.79 31.86 76.76 31.46 77.37 32.88 77.3 31.88 77.47 32.28 77.42 31.58 77.5 31.77 77.47 31.38 77.87 32.29 77.84 31.89 78.45 33.31 78.33 31.61 78.58 32.2 78.55 31.73 78.57 31.79 78.49 30.63 78.55 30.78 78.55 30.77 79.48 32.94 79.46 32.54 80.07 33.96 79.96 32.43 80.34 33.31 80.21 31.61 80.47 32.2 80.39 31.2 81.12 31.56 81.25 31.85 81.23 31.61 83.3 32.64 82.38 31.38 84.92 32.64 83.43 30.6"/><polygon class="cls-6" points="81.53 28.53 83.92 30.57 82.51 27.25 82.96 27.25 81.25 22.96 77.27 22.96 77.66 24.54 76.58 22.96 76.38 22.96 76.77 24.54 75.69 22.96 75.64 22.96 75.65 23.27 75.6 22.96 75.2 22.96 75.22 23.83 75.09 22.96 75.08 22.96 75.15 25.62 74.94 24.2 75 26.67 74.67 24.38 74.69 25.02 74.38 22.96 74.18 22.96 74.19 23.16 74.17 23.06 74.19 23.83 74.06 22.96 74.05 22.96 74.12 25.62 73.78 23.34 73.8 23.98 73.65 22.96 73.6 22.96 73.6 23.13 73.58 22.96 73.56 22.96 73.58 23.96 73.49 23.32 73.53 24.93 73.24 22.96 73.2 22.96 73.21 23.28 73.16 22.96 72.95 22.96 73.01 25.57 72.87 24.62 72.94 27.36 72.61 25.08 72.62 25.72 72.26 23.21 72.26 23.27 72.21 22.96 72.19 22.96 72.27 26.26 72.14 25.32 72.2 28.06 71.87 25.77 71.89 26.42 71.55 24.13 71.61 26.67 71.5 25.91 71.54 27.31 71.4 26.36 71.47 29.11 71.13 26.82 71.15 27.46 70.64 23.95 70.64 23.96 70.6 23.73 70.65 25.59 70.5 24.57 70.5 24.87 70.37 23.92 70.43 26.67 70.34 26.05 70.36 26.61 70.22 25.66 70.29 28.41 69.96 26.19 69.99 27.36 69.66 25.08 69.67 25.72 69.61 25.27 69.52 26.24 69.51 25.94 69.38 27.43 69.35 26.43 69.11 29.12 69.04 26.7 68.98 27.33 68.96 26.3 68.92 26.01 68.79 27.43 68.76 26.43 68.52 29.12 68.45 26.7 68.4 27.33 68.35 25.49 68.34 25.55 68.28 23.43 68.14 25 68.15 25.22 68.13 25.11 68.12 25.22 68.12 25.01 68.01 24.27 68.08 27.02 67.81 25.21 67.75 25.89 67.74 25.32 67.61 26.73 67.58 25.73 67.34 28.42 67.27 26 67.22 26.64 67.18 25.3 67.02 27.08 66.99 26.08 66.75 28.77 66.68 26.35 66.63 26.98 66.61 26.27 66.6 26.33 66.54 23.91 66.48 24.55 66.46 23.72 66.35 24.87 66.35 24.7 66.14 27.08 66.11 26.08 65.86 28.77 65.8 26.35 65.74 26.98 65.7 25.56 65.68 25.42 65.57 26.68 65.55 25.91 65.39 27.64 65.31 24.5 65.25 25.2 65.22 24.38 65.12 25.52 65.09 24.36 65 25.06 64.66 28.82 64.63 27.82 64.39 30.51 64.33 28.09 64.27 28.73 64.25 28.01 64.24 28.07 64.18 25.66 64.12 26.29 64.1 25.46 64 26.61 63.97 25.68 63.92 26.24 63.9 25.67 63.78 27.08 63.75 26.08 63.51 28.77 63.44 26.35 63.38 26.98 63.36 25.95 63.33 26.24 63.32 25.94 63.19 27.43 63.16 26.43 62.92 29.12 62.85 26.7 62.8 27.33 62.75 25.72 62.6 27.43 62.57 26.43 62.33 29.12 62.26 26.7 62.21 27.33 62.14 24.98 61.89 26.35 62 24.5 61.93 25.22 61.91 24.37 61.88 24.54 61.9 24.12 61.88 23.07 61.82 23.37 61.84 23.07 61.79 23.34 61.81 23 61.45 24.95 61.54 23.42 61.23 25.11 61.27 24.47 60.86 26.69 61.02 23.97 60.85 24.89 60.96 22.96 60.86 22.96 60.79 23.37 60.81 22.96 60.78 22.96 60.42 24.95 60.53 22.96 60.44 22.96 60.41 23.15 60.42 22.96 60.37 22.96 60.33 23.19 60.34 22.96 60.19 22.96 59.79 24.2 59.89 23.6 59.26 25.52 59.7 22.97 59.44 23.76 59.58 22.96 59.41 22.96 59.3 23.15 59.35 22.96 58.88 22.96 58.56 23.5 58.72 22.96 58.69 22.96 57.97 24.2 58.33 22.96 52.88 22.96 52.21 24.3 52.85 23.66 52.52 24.44 50.68 28.13 51.23 27.58 49.92 30.22 51.25 28.9 50.94 29.52 53.11 27.36 52.21 29.17 52.81 28.58 52.45 29.78 52.9 28.99 52.15 31.54 53.23 29.62 53.05 30.22 54.06 28.44 53.98 29.21 54.18 28.6 54.12 29.17 54.41 28.25 54.38 28.6 54.31 28.83 54.36 28.73 54.15 30.97 54.85 28.75 54.78 29.39 55.15 28.24 54.89 30.91 55.17 29.99 54.91 32.72 55.61 30.49 55.55 31.13 56.08 29.44 55.93 30.97 56.54 29.02 56.51 29.36 56.59 29.09 56.56 29.39 56.66 29.09 56.71 30.14 56.67 30.56 56.72 30.39 56.76 31.24 56.87 30.52 56.69 32.37 57.12 31 57.23 33.35 57.33 32.72 57.44 35.14 57.86 32.45 57.91 33.45 58.17 31.74 58.25 33.35 58.35 32.72 58.46 35.14 58.88 32.45 58.93 33.45 59.16 31.96 59.17 32.26 59.22 31.97 59.27 33.01 59.37 32.37 59.48 34.79 59.9 32.1 59.95 33.1 60.17 31.69 60.19 32.26 60.28 31.7 60.32 32.63 60.5 31.49 60.54 32.31 60.64 31.68 60.75 34.09 60.76 34.03 60.8 34.75 60.89 34.12 61.01 36.53 61.43 33.84 61.47 34.84 62.06 31.08 62.21 30.38 62.27 31.54 62.45 30.4 62.48 31.22 62.59 30.52 62.74 33.66 63.01 31.93 63.04 32.7 63.24 31.44 63.27 31.58 63.34 33.01 63.44 32.37 63.55 34.79 63.97 32.1 64.02 33.1 64.39 30.73 64.4 30.89 64.58 29.75 64.61 30.57 64.71 29.94 64.83 32.35 64.83 32.29 64.87 33.01 64.97 32.37 65.08 34.79 65.5 32.1 65.55 33.1 65.82 31.32 65.89 32.66 65.98 32.03 66.1 34.44 66.52 31.75 66.56 32.75 66.78 31.34 66.81 31.91 66.92 31.23 67.37 33.04 67.25 30.29 67.44 31.03 67.45 31.24 67.47 31.14 67.49 31.24 67.48 31.03 67.73 29.45 67.83 31.57 67.84 31.51 67.92 33.35 68.02 32.72 68.13 35.14 68.55 32.45 68.6 33.45 68.82 32.03 68.89 32.32 68.94 33.35 69.04 32.72 69.15 35.14 69.57 32.45 69.62 33.45 69.85 31.96 69.87 32.26 70.02 31.29 70.13 31.74 70.1 31.1 70.68 33.39 70.63 32.21 71.19 34.43 71.07 31.68 71.31 32.63 71.29 32.07 71.44 32.69 71.33 29.94 71.57 30.89 71.55 30.59 71.81 31.62 71.73 29.75 71.79 29.99 71.79 29.97 72.68 33.48 72.65 32.84 73.23 35.13 73.11 32.38 73.35 33.33 73.29 31.93 73.48 32.69 73.37 30.15 73.95 32.44 73.92 31.79 74.5 34.08 74.38 31.34 74.62 32.28 74.47 28.82 74.59 29.29 74.59 29.23 75.22 31.74 75.2 31.1 75.77 33.39 75.66 30.64 75.89 31.59 75.73 27.75 75.74 27.3 76.24 29.3 76.21 28.66 76.79 30.95 76.72 29.34 76.89 29.99 76.84 28.85 76.91 29.15 76.89 28.52 77.26 30 77.23 29.36 77.81 31.64 77.69 28.9 77.93 29.85 77.9 29.08 77.92 29.18 77.84 27.31 77.9 27.55 77.9 27.53 78.79 31.05 78.76 30.4 79.34 32.69 79.23 30.22 79.59 31.64 79.47 28.9 79.71 29.85 79.64 28.23 80.33 28.81 80.45 29.29 80.43 28.9 82.39 30.57 81.53 28.53"/></g><g id="string-lights"><path class="cls-9" d="M34.92,52.33s20.13,44,69,31"/><ellipse class="cls-10" cx="43.42" cy="61.33" rx="2" ry="0.5" transform="translate(-30.65 48.67) rotate(-45)"/><ellipse class="cls-10" cx="42.42" cy="67.33" rx="2" ry="0.5" transform="translate(-35.19 49.72) rotate(-45)"/><ellipse class="cls-10" cx="48.42" cy="67.33" rx="2" ry="0.5" transform="translate(-33.43 53.96) rotate(-45)"/><ellipse class="cls-10" cx="48.42" cy="73.33" rx="2" ry="0.5" transform="translate(-37.67 55.72) rotate(-45)"/><ellipse class="cls-10" cx="54.42" cy="73.33" rx="2" ry="0.5" transform="translate(-35.91 59.96) rotate(-45)"/><ellipse class="cls-10" cx="56.42" cy="79.33" rx="2" ry="0.5" transform="translate(-40.49 88.53) rotate(-60)"/><ellipse class="cls-10" cx="61.42" cy="77.33" rx="2" ry="0.5" transform="translate(-36.26 91.86) rotate(-60)"/><ellipse class="cls-10" cx="62.42" cy="82.33" rx="2" ry="0.5" transform="translate(-40.09 95.22) rotate(-60)"/><ellipse class="cls-10" cx="68.42" cy="80.33" rx="2" ry="0.5" transform="translate(-35.36 99.42) rotate(-60)"/><ellipse class="cls-10" cx="70.61" cy="85.7" rx="2.66" ry="0.47" transform="translate(-33.36 124.69) rotate(-71.07)"/><ellipse class="cls-10" cx="74.61" cy="81.7" rx="2.66" ry="0.47" transform="translate(-21.16 137.09) rotate(-77.64)"/><ellipse class="cls-10" cx="77.61" cy="87.7" rx="2.66" ry="0.47" transform="translate(-24.67 144.74) rotate(-77.64)"/><ellipse class="cls-10" cx="81.59" cy="82.83" rx="2.52" ry="0.47" transform="matrix(0.15, -0.99, 0.99, 0.15, -12.28, 151.44)"/><ellipse class="cls-10" cx="84.58" cy="88.19" rx="0.47" ry="2.16" transform="translate(-4.41 4.45) rotate(-2.94)"/><ellipse class="cls-10" cx="86.64" cy="83.35" rx="0.47" ry="2" transform="translate(-4.16 4.55) rotate(-2.94)"/><ellipse class="cls-10" cx="89.58" cy="88.19" rx="0.47" ry="2.16" transform="translate(-4.4 4.71) rotate(-2.94)"/><ellipse class="cls-10" cx="91.64" cy="83.35" rx="0.47" ry="2" transform="translate(-4.15 4.81) rotate(-2.94)"/><ellipse class="cls-10" cx="94.58" cy="87.19" rx="0.47" ry="2.16" transform="translate(-4.34 4.96) rotate(-2.94)"/><ellipse class="cls-10" cx="96.43" cy="82.17" rx="0.62" ry="2.13" transform="translate(-4.09 5.05) rotate(-2.94)"/><ellipse class="cls-10" cx="100.69" cy="86.8" rx="0.41" ry="2.55" transform="translate(-11.23 15.05) rotate(-8.1)"/><ellipse class="cls-10" cx="101.61" cy="80.7" rx="0.47" ry="2.66" transform="translate(-14.34 22.46) rotate(-11.79)"/><ellipse class="cls-10" cx="37.42" cy="61.33" rx="2" ry="0.5" transform="translate(-32.41 44.42) rotate(-45)"/><ellipse class="cls-10" cx="38.42" cy="54.33" rx="2" ry="0.5" transform="translate(-27.17 43.08) rotate(-45)"/><path class="cls-9" d="M109.92,98.33s-26.25,45.16-90,31.82"/><path class="cls-10" d="M98.37,107.93c1,.8,2.05,1.29,2.31,1.09s-.36-1-1.38-1.81-2.05-1.29-2.31-1.09S97.35,107.13,98.37,107.93Z"/><path class="cls-10" d="M99.68,114.09c1,.8,2.05,1.29,2.31,1.09s-.36-1-1.38-1.81-2.05-1.29-2.31-1.09S98.66,113.29,99.68,114.09Z"/><path class="cls-10" d="M91.85,114.09c1,.8,2.05,1.29,2.31,1.09s-.36-1-1.38-1.81-2.05-1.29-2.31-1.09S90.83,113.29,91.85,114.09Z"/><path class="cls-10" d="M91.85,120.25c1,.8,2.05,1.29,2.31,1.09s-.36-1-1.38-1.81-2.05-1.29-2.31-1.09S90.83,119.45,91.85,120.25Z"/><path class="cls-10" d="M84,120.25c1,.8,2.05,1.29,2.31,1.09s-.36-1-1.38-1.81-2.05-1.29-2.31-1.09S83,119.45,84,120.25Z"/><path class="cls-10" d="M81.31,126.3c.72,1,1.56,1.66,1.87,1.52s0-1.05-.74-2-1.56-1.66-1.87-1.52S80.59,125.32,81.31,126.3Z"/><path class="cls-10" d="M74.79,124.25c.72,1,1.56,1.66,1.87,1.52s0-1.05-.74-2-1.56-1.66-1.87-1.52S74.07,123.26,74.79,124.25Z"/><path class="cls-10" d="M73.49,129.38c.72,1,1.56,1.66,1.87,1.52s0-1.05-.74-2-1.56-1.66-1.87-1.52S72.77,128.4,73.49,129.38Z"/><path class="cls-10" d="M65.66,127.33c.72,1,1.56,1.66,1.87,1.52s0-1.05-.74-2-1.56-1.66-1.87-1.52S64.94,126.34,65.66,127.33Z"/><path class="cls-10" d="M62.79,132.73c.62,1.43,1.39,2.51,1.71,2.43s.08-1.31-.54-2.74-1.39-2.51-1.71-2.43S62.16,131.3,62.79,132.73Z"/><path class="cls-10" d="M57.55,128.57c.41,1.47,1,2.62,1.35,2.56s.27-1.3-.14-2.77-1-2.62-1.35-2.56S57.14,127.1,57.55,128.57Z"/><path class="cls-10" d="M53.64,134.73c.41,1.47,1,2.62,1.35,2.56s.27-1.3-.14-2.77-1-2.62-1.35-2.56S53.23,133.26,53.64,134.73Z"/><path class="cls-10" d="M48.44,129.71c.27,1.42.75,2.53,1.09,2.49s.39-1.22.13-2.63-.75-2.53-1.09-2.49S48.17,128.29,48.44,129.71Z"/><path class="cls-10" d="M44.53,135.11c-.08,1.22.13,2.22.47,2.23s.68-1,.76-2.18-.13-2.22-.47-2.23S44.61,133.89,44.53,135.11Z"/><path class="cls-10" d="M41.84,130.14c-.07,1.13.14,2.07.48,2.08s.68-.9.75-2-.14-2.07-.48-2.08S41.91,129,41.84,130.14Z"/><path class="cls-10" d="M38,135.11c-.08,1.22.13,2.22.47,2.23s.68-1,.76-2.18-.13-2.22-.47-2.23S38.08,133.89,38,135.11Z"/><path class="cls-10" d="M35.32,130.14c-.07,1.13.14,2.07.48,2.08s.68-.9.75-2-.14-2.07-.48-2.08S35.39,129,35.32,130.14Z"/><path class="cls-10" d="M31.48,134.08c-.08,1.22.13,2.22.47,2.23s.68-1,.76-2.18-.13-2.22-.47-2.23S31.56,132.86,31.48,134.08Z"/><path class="cls-10" d="M28.88,128.93c-.08,1.21.22,2.2.67,2.22s.87-.94,1-2.15-.22-2.2-.67-2.22S29,127.72,28.88,128.93Z"/><path class="cls-10" d="M23.61,133.65c-.26,1.43-.23,2.62.06,2.65s.74-1.1,1-2.53.23-2.62-.06-2.65S23.87,132.22,23.61,133.65Z"/><path class="cls-10" d="M22.33,127.34c-.39,1.48-.44,2.72-.11,2.77s.92-1.1,1.31-2.58.44-2.72.11-2.77S22.72,125.87,22.33,127.34Z"/><path class="cls-10" d="M106.2,107.93c1,.8,2.05,1.29,2.31,1.09s-.36-1-1.38-1.81-2.05-1.29-2.31-1.09S105.18,107.13,106.2,107.93Z"/><path class="cls-10" d="M104.89,100.75c1,.8,2.05,1.29,2.31,1.09s-.36-1-1.38-1.81-2.05-1.29-2.31-1.09S103.88,99.95,104.89,100.75Z"/></g><g id="Light-1"><circle class="cls-11" cx="47.92" cy="41.33" r="5"/></g><g id="Light-2"><circle class="cls-11" cx="107.92" cy="117.33" r="5"/></g><g id="Light-3"><circle class="cls-11" cx="25.92" cy="126.33" r="5"/></g><g id="Light-4"><circle class="cls-12" cx="55.92" cy="89.33" r="5"/></g><g id="Light-5"><circle class="cls-13" cx="99.92" cy="62.33" r="5"/></g><g id="Light-6"><circle class="cls-14" cx="83.92" cy="145.33" r="5"/></g></g></svg>