<svg xmlns="http://www.w3.org/2000/svg" xmlns:xlink="http://www.w3.org/1999/xlink" viewBox="0 0 398.2 303.04"><defs><style>.cls-1{fill:url(#linear-gradient);}.cls-2{fill:url(#linear-gradient-2);}.cls-3{fill:url(#linear-gradient-3);}.cls-4{fill:url(#linear-gradient-4);}.cls-5{fill:url(#linear-gradient-5);}.cls-6{fill:url(#linear-gradient-6);}.cls-7{fill:url(#linear-gradient-7);}.cls-8{fill:url(#linear-gradient-8);}.cls-9{fill:url(#linear-gradient-9);}.cls-10{fill:url(#linear-gradient-10);}.cls-11{fill:url(#linear-gradient-11);}.cls-12{fill:url(#linear-gradient-12);}</style><linearGradient id="linear-gradient" x1="94.22" y1="256.74" x2="187.96" y2="256.74" gradientUnits="userSpaceOnUse"><stop offset="0" stop-color="#c5d5d7"/><stop offset="0.11" stop-color="#bdd1d3"/><stop offset="0.27" stop-color="#a9c5ca"/><stop offset="0.47" stop-color="#87b1ba"/><stop offset="0.7" stop-color="#5796a4"/><stop offset="0.94" stop-color="#1c7488"/><stop offset="1" stop-color="#0d6c81"/></linearGradient><linearGradient id="linear-gradient-2" x1="121.44" y1="53.99" x2="187.96" y2="53.99" xlink:href="#linear-gradient"/><linearGradient id="linear-gradient-3" x1="121.55" y1="193.38" x2="187.96" y2="193.38" xlink:href="#linear-gradient"/><linearGradient id="linear-gradient-4" x1="121.55" y1="124.52" x2="187.96" y2="124.52" xlink:href="#linear-gradient"/><linearGradient id="linear-gradient-5" x1="94.24" y1="256.12" x2="0" y2="256.12" xlink:href="#linear-gradient"/><linearGradient id="linear-gradient-6" x1="256.48" y1="302.88" x2="256.48" y2="210.61" gradientUnits="userSpaceOnUse"><stop offset="0" stop-color="#c5d5d7"/><stop offset="1" stop-color="#0d6c81"/></linearGradient><linearGradient id="linear-gradient-7" x1="276.14" y1="53.99" x2="209.61" y2="53.99" xlink:href="#linear-gradient-6"/><linearGradient id="linear-gradient-8" x1="276.02" y1="193.38" x2="209.61" y2="193.38" xlink:href="#linear-gradient-6"/><linearGradient id="linear-gradient-9" x1="276.02" y1="124.52" x2="209.61" y2="124.52" xlink:href="#linear-gradient-6"/><linearGradient id="linear-gradient-10" x1="356.94" y1="83.06" x2="275.93" y2="83.06" gradientUnits="userSpaceOnUse"><stop offset="0" stop-color="#c5d5d7"/><stop offset="1" stop-color="#0d6c81"/></linearGradient><linearGradient id="linear-gradient-11" x1="331.67" y1="192.37" x2="398.2" y2="192.37" gradientUnits="userSpaceOnUse"><stop offset="0" stop-color="#c5d5d7"/><stop offset="0.13" stop-color="#c0d2d5"/><stop offset="0.28" stop-color="#b3cbce"/><stop offset="0.44" stop-color="#9cbec4"/><stop offset="0.6" stop-color="#7dacb5"/><stop offset="0.76" stop-color="#5495a2"/><stop offset="0.93" stop-color="#23798b"/><stop offset="1" stop-color="#0d6c81"/></linearGradient><linearGradient id="linear-gradient-12" x1="350.45" y1="303.04" x2="350.45" y2="209.2" xlink:href="#linear-gradient-6"/></defs><title>Asset 4</title><g id="Layer_2" data-name="Layer 2"><g id="letterJ"><polygon class="cls-1" points="187.96 247.5 121.55 210.61 94.22 225.87 94.24 302.88 187.96 247.5"/><polygon class="cls-2" points="187.96 107.98 121.65 70.52 121.44 37.77 187.96 0 187.96 107.98"/><polygon class="cls-3" points="187.96 247.5 121.55 210.61 121.55 178.52 187.96 139.27 187.96 247.5"/><polygon class="cls-4" points="121.55 178.52 187.96 139.27 187.96 107.98 121.65 70.52 121.55 178.52"/><polygon class="cls-5" points="0 247.39 65.78 209.2 94.24 225.94 94.24 303.04 0 247.39"/></g><g id="letterG"><polygon class="cls-6" points="209.61 247.5 276.02 210.61 303.35 225.87 303.33 302.88 209.61 247.5"/><polygon class="cls-7" points="209.61 107.98 275.93 70.52 276.14 37.77 209.61 0 209.61 107.98"/><polygon class="cls-8" points="209.61 247.5 276.02 210.61 276.02 178.52 209.61 139.27 209.61 247.5"/><polygon class="cls-9" points="276.02 178.52 209.61 139.27 209.61 107.98 275.93 70.52 276.02 178.52"/><polygon class="cls-10" points="356.94 85.15 298.82 128.34 275.93 115.18 276.14 37.77 356.94 85.15"/><polygon class="cls-11" points="397.57 247.39 331.79 209.04 331.67 176.56 398.2 137.35 397.57 247.39"/><polygon class="cls-12" points="397.57 247.39 331.79 209.2 303.33 225.94 303.33 303.04 397.57 247.39"/></g></g></svg>
