<svg xmlns="http://www.w3.org/2000/svg" xmlns:xlink="http://www.w3.org/1999/xlink" viewBox="0 0 402.2 307.04"><defs><style>.cls-1,.cls-10,.cls-11,.cls-12,.cls-2,.cls-3,.cls-4,.cls-5,.cls-6,.cls-7,.cls-8,.cls-9{stroke:#0d6c81;stroke-linejoin:round;stroke-width:4px;}.cls-1{fill:url(#linear-gradient);}.cls-2{fill:url(#linear-gradient-2);}.cls-3{fill:url(#linear-gradient-3);}.cls-4{fill:url(#linear-gradient-4);}.cls-5{fill:url(#linear-gradient-5);}.cls-6{fill:url(#linear-gradient-6);}.cls-7{fill:url(#linear-gradient-7);}.cls-8{fill:url(#linear-gradient-8);}.cls-9{fill:url(#linear-gradient-9);}.cls-10{fill:url(#linear-gradient-10);}.cls-11{fill:url(#linear-gradient-11);}.cls-12{fill:url(#linear-gradient-12);}</style><linearGradient id="linear-gradient" x1="96.22" y1="258.74" x2="189.96" y2="258.74" gradientUnits="userSpaceOnUse"><stop offset="0" stop-color="#0b3953"/><stop offset="0.26" stop-color="#0b415a"/><stop offset="0.66" stop-color="#0c556c"/><stop offset="1" stop-color="#0d6c81"/></linearGradient><linearGradient id="linear-gradient-2" x1="123.44" y1="55.99" x2="189.96" y2="55.99" xlink:href="#linear-gradient"/><linearGradient id="linear-gradient-3" x1="123.55" y1="195.38" x2="189.96" y2="195.38" xlink:href="#linear-gradient"/><linearGradient id="linear-gradient-4" x1="123.55" y1="126.52" x2="189.96" y2="126.52" xlink:href="#linear-gradient"/><linearGradient id="linear-gradient-5" x1="96.24" y1="258.12" x2="2" y2="258.12" xlink:href="#linear-gradient"/><linearGradient id="linear-gradient-6" x1="258.48" y1="304.88" x2="258.48" y2="212.61" gradientUnits="userSpaceOnUse"><stop offset="0" stop-color="#0b3953"/><stop offset="1" stop-color="#0d6c81"/></linearGradient><linearGradient id="linear-gradient-7" x1="278.14" y1="55.99" x2="211.61" y2="55.99" xlink:href="#linear-gradient-6"/><linearGradient id="linear-gradient-8" x1="278.02" y1="195.38" x2="211.61" y2="195.38" xlink:href="#linear-gradient-6"/><linearGradient id="linear-gradient-9" x1="278.02" y1="126.52" x2="211.61" y2="126.52" xlink:href="#linear-gradient-6"/><linearGradient id="linear-gradient-10" x1="358.94" y1="85.06" x2="277.93" y2="85.06" gradientUnits="userSpaceOnUse"><stop offset="0" stop-color="#0b3953"/><stop offset="1" stop-color="#0d6c81"/></linearGradient><linearGradient id="linear-gradient-11" x1="333.67" y1="194.37" x2="400.2" y2="194.37" gradientUnits="userSpaceOnUse"><stop offset="0" stop-color="#0b3953"/><stop offset="0.27" stop-color="#0b3e57"/><stop offset="0.57" stop-color="#0c4b63"/><stop offset="0.88" stop-color="#0d6278"/><stop offset="1" stop-color="#0d6c81"/></linearGradient><linearGradient id="linear-gradient-12" x1="352.45" y1="305.04" x2="352.45" y2="211.2" xlink:href="#linear-gradient-6"/></defs><title>Asset 5</title><g id="Layer_2" data-name="Layer 2"><g id="letterJ"><polygon class="cls-1" points="189.96 249.5 123.55 212.61 96.22 227.87 96.24 304.88 189.96 249.5"/><polygon class="cls-2" points="189.96 109.98 123.65 72.52 123.44 39.77 189.96 2 189.96 109.98"/><polygon class="cls-3" points="189.96 249.5 123.55 212.61 123.55 180.52 189.96 141.27 189.96 249.5"/><polygon class="cls-4" points="123.55 180.52 189.96 141.27 189.96 109.98 123.65 72.52 123.55 180.52"/><polygon class="cls-5" points="2 249.39 67.78 211.2 96.24 227.94 96.24 305.04 2 249.39"/></g><g id="letterG"><polygon class="cls-6" points="211.61 249.5 278.02 212.61 305.35 227.87 305.33 304.88 211.61 249.5"/><polygon class="cls-7" points="211.61 109.98 277.93 72.52 278.14 39.77 211.61 2 211.61 109.98"/><polygon class="cls-8" points="211.61 249.5 278.02 212.61 278.02 180.52 211.61 141.27 211.61 249.5"/><polygon class="cls-9" points="278.02 180.52 211.61 141.27 211.61 109.98 277.93 72.52 278.02 180.52"/><polygon class="cls-10" points="358.94 87.15 300.82 130.34 277.93 117.18 278.14 39.77 358.94 87.15"/><polygon class="cls-11" points="399.57 249.39 333.79 211.04 333.67 178.56 400.2 139.35 399.57 249.39"/><polygon class="cls-12" points="399.57 249.39 333.79 211.2 305.33 227.94 305.33 305.04 399.57 249.39"/></g></g></svg>
